<svg id="Layer_1" data-name="Layer 1" xmlns="http://www.w3.org/2000/svg" viewBox="0 0 1920 1080"><defs><style>.cls-1{fill:#091629;}.cls-2{font-size:19.6px;font-family:UTM-Avo, UTM Avo;letter-spacing:-0.09em;}.cls-18,.cls-2,.cls-4,.cls-7{fill:#fff;}.cls-3{letter-spacing:0em;}.cls-5,.cls-9{fill:red;}.cls-6{font-size:60.35px;fill:#d73b6b;}.cls-10,.cls-12,.cls-14,.cls-16,.cls-6{font-family:MesloLGLDZ-Bold, Meslo LG L DZ;font-weight:700;}.cls-7,.cls-9{stroke:#000;stroke-miterlimit:10;}.cls-7{stroke-width:10px;opacity:0.75;}.cls-8{fill:none;}.cls-10,.cls-16{font-size:50px;}.cls-11{fill:#9579e3;}.cls-12{font-size:35.96px;}.cls-13{fill:#010101;}.cls-14{font-size:80px;fill:#c41a1a;}.cls-15{fill:#b1f0e6;}.cls-16{fill:#81a11d;}.cls-17{fill:#149414;}.cls-18{opacity:0.57;}</style></defs><title>MINDX_GPA</title><rect class="cls-1" width="1920" height="1080"/><text class="cls-2" transform="translate(1677 113.65) scale(0.89 1)">T<tspan class="cls-3" x="6.55" y="0">echnology &amp; Startup School</tspan></text><path class="cls-4" d="M1734.55,47.76a14.6,14.6,0,0,0-5.56-4.38,17.7,17.7,0,0,0-7-1.32,16,16,0,0,0-6.67,1.52,13.64,13.64,0,0,0-5.36,4.2l-.58.64a2.91,2.91,0,0,0-.47.77l-.44-.77-.5-.64a13,13,0,0,0-4.86-4.24,13.47,13.47,0,0,0-6.16-1.48,14.6,14.6,0,0,0-6.13,1.3,9.13,9.13,0,0,0-4.71,4.42V43.52h-9v46h9.86V67.6a51,51,0,0,1,.32-6.73,11.23,11.23,0,0,1,2.14-5.64,6.7,6.7,0,0,1,5.54-2.39,7.2,7.2,0,0,1,3.68,1,7.53,7.53,0,0,1,2.79,2.73,10.57,10.57,0,0,1,1.36,4.08,12.53,12.53,0,0,1,.18,2.55V89.53h9.9V66.3c0-1.32,0-2.5.11-3.53a22.85,22.85,0,0,1,.29-2.51,12.84,12.84,0,0,1,1.16-3.44,7.55,7.55,0,0,1,6.81-4,7.17,7.17,0,0,1,3.57.94,6.93,6.93,0,0,1,2.63,2.49,10.91,10.91,0,0,1,1.27,4.23,8.21,8.21,0,0,1,.14,1.22c0,.46,0,1,0,1.5V89.53h9.85V63.71a44.11,44.11,0,0,0-.68-8.52A17.81,17.81,0,0,0,1734.55,47.76Z"/><rect class="cls-4" x="1746.82" y="43.52" width="9.86" height="46.01"/><rect class="cls-4" x="1746.82" y="28.2" width="9.86" height="10.01"/><path class="cls-4" d="M1797.89,49.11a1.72,1.72,0,0,0-.44-.64l-.62-.69a15.45,15.45,0,0,0-5.32-4.22,14.6,14.6,0,0,0-12.81,0,12.42,12.42,0,0,0-5,4.26V43.52h-9.1v46h9.86V67.27c0-1.24,0-2.31.07-3.22s.12-1.8.22-2.69a12,12,0,0,1,1.34-4.48,7.65,7.65,0,0,1,3-2.92,7.81,7.81,0,0,1,3.92-1.12,7.34,7.34,0,0,1,3.71,1,7.59,7.59,0,0,1,2.88,3,12.09,12.09,0,0,1,1.49,5.22,11.63,11.63,0,0,1,.18,2.4v25h9.86V65.69a63.08,63.08,0,0,0-.44-8.63A19.75,19.75,0,0,0,1797.89,49.11Z"/><path class="cls-4" d="M1850.64,28.2V15.69h-9.86V28.52h0V48.26a15.17,15.17,0,0,0-5.67-4.6,16.18,16.18,0,0,0-7-1.6,17.64,17.64,0,0,0-8.26,2.15,21.45,21.45,0,0,0-6.89,5.65,26,26,0,0,0-5.25,12.2,31.51,31.51,0,0,0-.33,4.65,27.33,27.33,0,0,0,1.49,8.83,26.22,26.22,0,0,0,4.09,7.74,20.81,20.81,0,0,0,6.62,5.7,17.09,17.09,0,0,0,8.24,2,16.29,16.29,0,0,0,7.86-2,15.17,15.17,0,0,0,6-5.7v6.25h9V28.2Zm-12.75,48a11,11,0,0,1-8.58,4,10.79,10.79,0,0,1-8.58-4.11,14.93,14.93,0,0,1-3.46-9.91,13.66,13.66,0,0,1,3.57-9.34,10.83,10.83,0,0,1,8.32-4,11.31,11.31,0,0,1,8.68,4,13.83,13.83,0,0,1,3.61,9.64A14.24,14.24,0,0,1,1837.89,76.21Z"/><path class="cls-5" d="M1877.63,46.91a2.41,2.41,0,0,0,1.58-.58,3.35,3.35,0,0,0,.84-4.23.39.39,0,0,0,0-.09l-15-26.34h-6.67l16.9,29.74A2.65,2.65,0,0,0,1877.63,46.91Z"/><path class="cls-5" d="M1893.21,33.76l.06.05a2.47,2.47,0,0,0,1.54.43,2.53,2.53,0,0,0,2.39-1.39l9.1-16.06a4.21,4.21,0,0,0,.46-1.12h-6.41l-7.92,13.78a3.12,3.12,0,0,0-.33,2.46A3.74,3.74,0,0,0,1893.21,33.76Z"/><path class="cls-5" d="M1891,40.25,1877,15.67h-6.57L1885.36,42l-27,47.52h6.5L1891,43.62A2.76,2.76,0,0,0,1891,40.25Z"/><path class="cls-5" d="M1899.72,58.54a2.79,2.79,0,0,0-1.51.53l0,0a3.16,3.16,0,0,0-1.35,2,3.43,3.43,0,0,0,.5,2.4l14.81,26.08h6.63L1902.1,60A2.68,2.68,0,0,0,1899.72,58.54Z"/><path class="cls-5" d="M1884,71.64a2.5,2.5,0,0,0-1.53-.42,2.87,2.87,0,0,0-2.3,1.26.41.41,0,0,0-.07.11l-9.23,16.2a3,3,0,0,0-.32.74h6.59L1884.8,76A3.06,3.06,0,0,0,1884,71.64Z"/><path class="cls-5" d="M1891.88,63.45l26.9-47.78h-6.33l-26.21,46.07,0,.09a3.54,3.54,0,0,0,0,3.31l13.86,24.39h6.47a4.16,4.16,0,0,0-.39-.87Z"/><text class="cls-6" transform="translate(19.94 83.59)">Team:</text><text class="cls-6" transform="translate(19.94 168.08)">Score:</text><rect class="cls-7" x="208.32" y="36.5" width="362.13" height="54.32" rx="22.5"/><rect class="cls-7" x="234.87" y="122.81" width="362.13" height="54.32" rx="22.5"/><rect x="1676" y="238" width="200" height="600"/><rect x="48" y="235" width="200" height="600"/><rect x="699" y="908" width="300" height="100"/><rect x="1104" y="908" width="300" height="100"/><rect x="1500" y="908" width="300" height="100"/><rect x="297.5" y="908" width="300" height="100"/><line class="cls-8" x1="686" y1="905" x2="724" y2="905"/><circle class="cls-9" cx="148" cy="956" r="80"/><text class="cls-10" transform="translate(86.79 975)">HINT</text><rect class="cls-11" x="1724" y="243.8" width="106" height="51.11" rx="19.14"/><text class="cls-12" transform="translate(1727.45 283.83) scale(0.91 1)">TIMER</text><rect class="cls-13" x="300" y="238" width="1300" height="600"/><text class="cls-14" transform="translate(764.4 320.18)">QUESTION</text><rect class="cls-15" x="821" y="730" width="280" height="90" rx="45"/><text class="cls-16" transform="translate(870.25 791.74)">SUBMIT</text><path class="cls-17" d="M698.56,398.69h-5.88l-29.26-25.4v25.4H658.7V352h5.44l29.7,25.67V352h4.72Z"/><path class="cls-17" d="M718.52,398.69H705.46V352h13.06V366.9a17,17,0,0,1,4.41-3.72,11.85,11.85,0,0,1,5.57-1.2,14.1,14.1,0,0,1,6.63,1.47,8.44,8.44,0,0,1,4.61,6.67,43,43,0,0,1,.17,4.92v23.65h-13V374.83a28.18,28.18,0,0,0-.28-5.12c-.45-2.06-1.54-3.08-3.24-3.08-2.31,0-3.76,1.18-4.38,3.55a21,21,0,0,0-.44,5Z"/><path class="cls-17" d="M778.16,398.69H765.55l.41-4.48a30.11,30.11,0,0,1-5.33,3.76,13.67,13.67,0,0,1-6.29,1.51,8.79,8.79,0,0,1-6.87-2.67,10,10,0,0,1-2.36-7.08q0-6.69,5.54-9.46,3.08-1.54,10.76-2.81l3.93-.65v-2.87c0-3.37-.26-5.54-.85-6.52-.71-1.17-2.08-1.75-4.1-1.75q-5,0-5,3.18c0,1.32.83,2.5,2.49,3.52a27.24,27.24,0,0,1-7.42,4.48q-3.93-2.94-3.93-6.15a6.49,6.49,0,0,1,2.57-5q4.33-3.8,12.92-3.79,11.18,0,14.42,5,1.71,2.63,1.71,9.87Zm-3.59-38.25H763.63l-3.78-4.69-3.79,4.69h-5.55l7.11-8.41h9.94Zm-7.28,52.74H758v-9.67h9.33Zm-1.95-33.05c-2.44.14-4.2.75-5.3,1.85s-1.64,2.84-1.64,5.26c0,3.87,1.25,5.81,3.73,5.81q3.21,0,3.21-5.23Z"/><path class="cls-17" d="M785.58,409.42V362.77h13v2.36A8.61,8.61,0,0,1,805.3,362a14.34,14.34,0,0,1,7.55,2.29q8,4.85,8,16.64,0,8.92-4.93,14.05a13.82,13.82,0,0,1-10.35,4.55q-3.93,0-6.91-3.7v13.64Zm13-38.35v17q0,6.8,3.35,6.8,2.32,0,3.46-3,1.39-3.72,1.4-11.82,0-13.87-4.31-13.88a3.4,3.4,0,0,0-2.9,1.64A5.58,5.58,0,0,0,798.63,371.07Z"/><path class="cls-17" d="M876.67,394.79q-3.93,4.69-13.78,4.69-9.36,0-14.87-4.52-5.94-4.84-5.94-14,0-8.85,5.94-14.05,5.68-4.95,14.67-4.95a21.48,21.48,0,0,1,9,1.67c3.22,1.51,4.82,3.86,4.82,7.08q0,3.35-3.45,6.63a8.19,8.19,0,0,1-4.44-1.42,8.93,8.93,0,0,1-3.15-3.54c1.6-1.27,2.4-2.44,2.4-3.49q0-2.73-3.87-2.73a6.06,6.06,0,0,0-5.64,3.49q-1.39,2.6-1.4,9.5,0,9.25,2,12.88a5.63,5.63,0,0,0,5.3,3,6.68,6.68,0,0,0,3.86-1.16,4,4,0,0,0,1.91-3.38,8.67,8.67,0,0,0-.24-1.78Q875.64,389.33,876.67,394.79Z"/><path class="cls-17" d="M912.08,398.69H899.46l.41-4.48a29.39,29.39,0,0,1-5.33,3.76,13.64,13.64,0,0,1-6.29,1.51,8.82,8.82,0,0,1-6.87-2.67,10.08,10.08,0,0,1-2.36-7.08q0-6.69,5.54-9.46,3.08-1.54,10.77-2.81l3.93-.65v-2.87c0-3.37-.26-5.54-.86-6.52-.7-1.17-2.07-1.75-4.1-1.75-3.32,0-5,1.06-5,3.18,0,1.32.83,2.5,2.5,3.52a27.4,27.4,0,0,1-7.42,4.48q-3.93-2.94-3.93-6.15a6.47,6.47,0,0,1,2.56-5q4.35-3.8,12.92-3.79,11.17,0,14.43,5,1.71,2.63,1.71,9.87Zm-3.59-38.25h-11l-3.77-4.69L890,360.44h-5.56l7.11-8.41h10Zm-9.23,19.69c-2.44.14-4.21.75-5.3,1.85s-1.64,2.84-1.64,5.26q0,5.81,3.73,5.81,3.21,0,3.21-5.23Z"/><path class="cls-17" d="M940.51,362.77h13.06v35.92H940.51v-4.14q-4.6,4.92-10.39,4.93-7.27,0-9.87-4.86c-.78-1.43-1.17-4.17-1.17-8.2V362.77h13.06v23.85a37,37,0,0,0,.2,5q.58,3.18,3,3.18a4.46,4.46,0,0,0,4.68-3.56,19.37,19.37,0,0,0,.51-5Z"/><path class="cls-17" d="M991.54,398.69h-13V352h13V366.9a17.32,17.32,0,0,1,4.41-3.72,11.91,11.91,0,0,1,5.57-1.2,14.11,14.11,0,0,1,6.64,1.47,8.44,8.44,0,0,1,4.61,6.67,45.52,45.52,0,0,1,.17,4.92v23.65H999.88V374.83a29.55,29.55,0,0,0-.27-5.12c-.46-2.06-1.54-3.08-3.25-3.08q-3.45,0-4.37,3.55a20.9,20.9,0,0,0-.45,5Z"/><path class="cls-17" d="M1037,362a17.43,17.43,0,0,1,13.37,5.64,19.08,19.08,0,0,1,5.23,13.6,17.29,17.29,0,0,1-6.12,13.6,18.92,18.92,0,0,1-31.38-14.32,17.76,17.76,0,0,1,6-13.64A18.59,18.59,0,0,1,1037,362Zm.58-1.47h-3.14l-.07-4.31a4.1,4.1,0,0,0,1.46.24c1.42,0,2.13-1.24,2.13-3.73s-.62-3.62-1.85-3.62-1.74.67-1.74,2a3.07,3.07,0,0,0,.55,1.67,9.18,9.18,0,0,1-3,1.27,5.09,5.09,0,0,1-.34-1.92,4.29,4.29,0,0,1,1.71-3.62,6.08,6.08,0,0,1,3.93-1.23q3.8,0,5.43,2.63a5.24,5.24,0,0,1,.82,2.94,5,5,0,0,1-1.67,3.93,6.09,6.09,0,0,1-4.21,1.61Zm-.75,5.19q-4.51,0-4.51,14.94,0,15.13,4.51,15.14t4.51-15Q1041.34,365.71,1036.83,365.67Z"/><path class="cls-17" d="M1067.94,348a8.26,8.26,0,0,1,5.12,1.68,5.67,5.67,0,0,1,2.4,4.68A5.58,5.58,0,0,1,1073,359a8.87,8.87,0,0,1-10.39,0,5.73,5.73,0,0,1,.07-9.4A8.76,8.76,0,0,1,1067.94,348Zm6.52,50.69h-13.29V362.77h13.29Z"/><path class="cls-17" d="M1133.39,372.71a10.13,10.13,0,0,0,2.19-5.57h-5.3v-9.67h9.3v8.24a13.83,13.83,0,0,1-1.95,7.38,17.45,17.45,0,0,1-3,3.62,21.61,21.61,0,0,1,.45,4.48,17.29,17.29,0,0,1-6.12,13.6,18.92,18.92,0,0,1-31.38-14.32,17.76,17.76,0,0,1,6-13.64A18.59,18.59,0,0,1,1116.5,362a17.92,17.92,0,0,1,13.27,5.57A17.62,17.62,0,0,1,1133.39,372.71Zm-16.3-12.23h-3.15l-.07-4.31a4.12,4.12,0,0,0,1.47.24c1.41,0,2.12-1.24,2.12-3.73s-.61-3.62-1.84-3.62-1.75.67-1.75,2a3.15,3.15,0,0,0,.55,1.67,9.08,9.08,0,0,1-3,1.27,5.09,5.09,0,0,1-.34-1.92,4.29,4.29,0,0,1,1.71-3.62,6.08,6.08,0,0,1,3.93-1.23q3.8,0,5.43,2.63a5.24,5.24,0,0,1,.82,2.94,5,5,0,0,1-1.67,3.93,6.08,6.08,0,0,1-4.2,1.61Zm-.76,5.19q-4.5,0-4.51,14.94,0,15.13,4.51,15.14t4.52-15Q1120.85,365.71,1116.33,365.67Z"/><path class="cls-17" d="M1178.51,352h13v2.81h3.76v4.68h-3.76v39.17h-13v-2.36a8.58,8.58,0,0,1-6.63,3.18,14.4,14.4,0,0,1-7.59-2.29q-8-4.86-8-16.68,0-8.93,4.93-14.05A13.85,13.85,0,0,1,1171.6,362q3.93,0,6.91,3.69v-6.15h-9.2v-4.68h9.2Zm0,38.35V373.43q0-6.8-3.35-6.8-2.33,0-3.45,3-1.41,3.73-1.41,11.83,0,13.88,4.31,13.88a3.43,3.43,0,0,0,2.91-1.64A5.68,5.68,0,0,0,1178.51,390.38Z"/><path class="cls-17" d="M1230.25,398.69h-12.61l.41-4.48a29.39,29.39,0,0,1-5.33,3.76,13.67,13.67,0,0,1-6.29,1.51,8.82,8.82,0,0,1-6.87-2.67,10.08,10.08,0,0,1-2.36-7.08q0-6.69,5.54-9.46,3.08-1.54,10.77-2.81l3.93-.65v-2.87c0-3.37-.26-5.54-.86-6.52-.7-1.17-2.07-1.75-4.1-1.75q-5,0-5,3.18c0,1.32.83,2.5,2.5,3.52a27.55,27.55,0,0,1-7.42,4.48q-3.93-2.94-3.93-6.15a6.47,6.47,0,0,1,2.56-5q4.35-3.8,12.92-3.79,11.18,0,14.43,5c1.14,1.75,1.7,5,1.7,9.87Zm-3.58-38.25h-11l-3.78-4.69-3.79,4.69h-5.55l7.11-8.41h10Zm-9.23,19.69c-2.44.14-4.21.75-5.3,1.85s-1.64,2.84-1.64,5.26q0,5.81,3.72,5.81,3.22,0,3.22-5.23Z"/><path class="cls-17" d="M1262.76,362.77h5l-15.45,35.65q-2.8,6.45-4.62,8.54a9,9,0,0,1-7.11,3.28,6.68,6.68,0,0,1-5.19-2.36l2.63-5.5a4.1,4.1,0,0,0,3.66,2.26q3.1,0,4.68-3.32l2.09-4.45-14.7-34.1h14.39l7.32,17.37Z"/><rect class="cls-8" x="372" y="424" width="1179" height="297"/><rect class="cls-18" x="363" y="424" width="1179" height="297"/><path d="M421.84,463.35q-3.3,3.7-11.53,3.71-8.47,0-13.72-4.15-5.59-4.43-5.59-13,0-8.24,5.59-13,5.3-4.56,13.65-4.56c3.89,0,6.88.62,9,1.88a5.09,5.09,0,0,1,2.81,4.54q0,3.28-3.44,3.29a6.25,6.25,0,0,1-4.71-2,2.9,2.9,0,0,0,1.14-2c0-1.57-1.22-2.36-3.68-2.36a7,7,0,0,0-6.13,3.34q-1.6,2.44-1.61,9.36a34.9,34.9,0,0,0,.85,9,7.82,7.82,0,0,0,4.59,5.51,9.84,9.84,0,0,0,3.79.73c3,0,4.46-1.21,4.46-3.62,0-.18,0-.43,0-.77A4.67,4.67,0,0,1,421.84,463.35Z"/><path d="M447.18,466.35h-9l.29-3.2a21.72,21.72,0,0,1-3.81,2.69,9.77,9.77,0,0,1-4.49,1.07,6.3,6.3,0,0,1-4.91-1.9,7.21,7.21,0,0,1-1.68-5.06,7,7,0,0,1,3.95-6.76,30,30,0,0,1,7.69-2l2.81-.47v-2.05c0-2.4-.19-4-.61-4.66a3.14,3.14,0,0,0-2.93-1.24c-2.37,0-3.56.75-3.56,2.27a3.05,3.05,0,0,0,1.78,2.51,19.64,19.64,0,0,1-5.3,3.2q-2.81-2.1-2.81-4.4a4.65,4.65,0,0,1,1.84-3.54c2.06-1.8,5.14-2.71,9.22-2.71q8,0,10.31,3.57,1.21,1.88,1.22,7.05ZM444.61,439H436.8l-2.7-3.35L431.39,439h-4l5.08-6h7.1ZM438,453.09a5.67,5.67,0,0,0-3.78,1.32,5.16,5.16,0,0,0-1.17,3.76c0,2.77.88,4.15,2.66,4.15q2.29,0,2.29-3.73Z"/><path d="M467.49,440.69h9.33v25.66h-9.33v-3a10,10,0,0,1-7.42,3.51c-3.47,0-5.82-1.15-7.06-3.47q-.83-1.53-.83-5.86V440.69h9.33v17a24.71,24.71,0,0,0,.15,3.59c.27,1.51,1,2.27,2.12,2.27a3.18,3.18,0,0,0,3.34-2.54,13.5,13.5,0,0,0,.37-3.59Z"/><path d="M504.09,444.11v16a9.09,9.09,0,0,0,.22,2.69,1.69,1.69,0,0,0,1.66,1.1c1.22,0,2.21-.82,3-2.47a7.59,7.59,0,0,1,2.61,3.84,16.82,16.82,0,0,1-7.57,1.63c-3.87,0-6.54-.79-8-2.37a6.76,6.76,0,0,1-1.42-4.69V444.11H492v-3.42h1.2a6.42,6.42,0,0,0,4.93-2.61,15.72,15.72,0,0,0,2.83-5.06h3.18v7.67h5.44v3.42Z"/><path d="M523.74,466.35h-9.5V440.69h9.5v6.18q2.81-7.11,7.47-7.11c.42,0,.94,0,1.56.08a15.28,15.28,0,0,1,.27,2.58,12.5,12.5,0,0,1-1,4.47,4.72,4.72,0,0,0-2.64-1,4.86,4.86,0,0,0-4.4,2.95,11.3,11.3,0,0,0-1.29,5.44Z"/><path d="M558,466.35h-9l.29-3.2a21.72,21.72,0,0,1-3.81,2.69,9.77,9.77,0,0,1-4.49,1.07,6.3,6.3,0,0,1-4.91-1.9,7.21,7.21,0,0,1-1.68-5.06,7,7,0,0,1,4-6.76,30,30,0,0,1,7.69-2l2.81-.47v-2.05c0-2.4-.19-4-.61-4.66a3.14,3.14,0,0,0-2.93-1.24c-2.37,0-3.56.75-3.56,2.27a3.05,3.05,0,0,0,1.78,2.51,19.64,19.64,0,0,1-5.3,3.2q-2.81-2.1-2.81-4.4a4.62,4.62,0,0,1,1.84-3.54c2.06-1.8,5.14-2.71,9.22-2.71q8,0,10.31,3.57,1.22,1.88,1.22,7.05Zm-10.18-27.3h-2.25l-.05-3.07a3,3,0,0,0,1.05.17c1,0,1.52-.89,1.52-2.66s-.44-2.59-1.32-2.59-1.25.48-1.25,1.44a2.24,2.24,0,0,0,.39,1.2,6.65,6.65,0,0,1-2.15.9,3.72,3.72,0,0,1-.24-1.37,3.06,3.06,0,0,1,1.22-2.58,4.33,4.33,0,0,1,2.81-.88,4.2,4.2,0,0,1,3.88,1.88,3.77,3.77,0,0,1,.59,2.1,3.57,3.57,0,0,1-1.2,2.8,4.32,4.32,0,0,1-3,1.15Zm1,14a5.67,5.67,0,0,0-3.78,1.32,5.16,5.16,0,0,0-1.17,3.76c0,2.77.88,4.15,2.66,4.15q2.29,0,2.29-3.73Z"/><path d="M585.31,466.35h-9.49V433h9.49Z"/><path d="M614.9,447.79a7.16,7.16,0,0,0,1.56-4h-3.78v-6.91h6.64v5.88a9.85,9.85,0,0,1-1.39,5.27,12.87,12.87,0,0,1-2.12,2.59,15.72,15.72,0,0,1,.31,3.2,12.36,12.36,0,0,1-4.37,9.72,13.08,13.08,0,0,1-8.91,3.34,12.94,12.94,0,0,1-10-4.47,13.17,13.17,0,0,1-3.47-9.1,12.64,12.64,0,0,1,4.3-9.74,13.25,13.25,0,0,1,9.2-3.5,12.86,12.86,0,0,1,9.47,4A12.62,12.62,0,0,1,614.9,447.79ZM604.84,439H601l-2.84-6h6.64Zm-2.12,3.74q-3.22,0-3.22,10.66t3.22,10.82q3.22,0,3.22-10.74T602.72,442.77Z"/><path d="M624.94,430.14a5.91,5.91,0,0,1,3.66,1.2,4,4,0,0,1,1.71,3.34,4,4,0,0,1-1.76,3.35,6.34,6.34,0,0,1-7.42,0,4.07,4.07,0,0,1,0-6.71A6.15,6.15,0,0,1,624.94,430.14Zm4.66,36.21h-9.5V440.69h9.5Z"/><path d="M641.44,466.35h-6.66v-6.91h6.66Z"/><path d="M653.11,466.35h-6.66v-6.91h6.66Z"/><path d="M664.78,466.35h-6.66v-6.91h6.66Z"/><path d="M676.45,466.35h-6.66v-6.91h6.66Z"/></svg>