<?xml version="1.0" encoding="utf-8"?>
<!-- Generator: Adobe Illustrator 24.0.0, SVG Export Plug-In . SVG Version: 6.00 Build 0)  -->
<svg version="1.1" id="Layer_1" xmlns="http://www.w3.org/2000/svg" xmlns:xlink="http://www.w3.org/1999/xlink" x="0px" y="0px"
	 viewBox="0 0 1920 1080" style="enable-background:new 0 0 1920 1080;" xml:space="preserve">
<style type="text/css">
	.st0{fill:#091629;}
	.st1{fill:#FFFFFF;}
	.st2{font-family:'UTM-Avo';}
	.st3{font-size:19.5988px;}
	.st4{fill:#FF0000;}
	.st5{fill:none;}
	.st6{fill:#D73B6B;}
	.st7{font-family:'MesloLGLDZ-Bold';}
	.st8{font-size:60.3543px;}
	.st9{opacity:0.75;fill:#FFFFFF;stroke:#000000;stroke-width:10;stroke-miterlimit:10;}
	.st10{fill:#FF0000;stroke:#000000;stroke-miterlimit:10;}
	.st11{font-size:50px;}
	.st12{fill:#9579E3;}
	.st13{font-size:35.9582px;}
	.st14{fill:#010101;}
	.st15{fill:#C41A1A;}
	.st16{font-size:80px;}
	.st17{fill:#B1F0E6;}
	.st18{fill:#81A11D;}
	.st19{fill:#149414;}
	.st20{opacity:0.57;fill:#FFFFFF;}
</style>
<rect class="st0" width="1920" height="1080"/>
<g>
	<text transform="matrix(0.8941 0 0 1 1676.1963 113.646)" class="st1 st2 st3">Technology &amp; Startup School</text>
	<g>
		<path class="st1" d="M1734.55,47.76c-1.66-2.04-3.51-3.5-5.56-4.38c-2.05-0.88-4.4-1.32-7.03-1.32c-2.22,0-4.45,0.51-6.67,1.52
			c-2.22,1.01-4.01,2.41-5.36,4.2l-0.58,0.65c-0.17,0.19-0.33,0.45-0.47,0.77l-0.43-0.77l-0.51-0.65c-1.28-1.84-2.9-3.25-4.86-4.24
			c-1.96-0.99-4.01-1.48-6.16-1.48c-2.17,0-4.22,0.43-6.12,1.3c-2.27,1.05-3.84,2.53-4.71,4.42v-4.26h-9.02v46.01h9.86V67.6
			c0-2.97,0.11-5.22,0.33-6.73c0.36-2.49,1.07-4.36,2.14-5.63c1.28-1.59,3.13-2.39,5.54-2.39c1.28,0,2.51,0.34,3.68,1.01
			c1.17,0.68,2.1,1.59,2.79,2.74c0.69,1.15,1.14,2.51,1.36,4.07c0.12,0.51,0.18,1.36,0.18,2.55v0.49v0.61v0.73v24.48h9.89V67.6v-1.3
			c0-1.32,0.04-2.5,0.11-3.53c0.07-1.03,0.17-1.86,0.29-2.51c0.34-1.51,0.72-2.66,1.16-3.45c0.8-1.35,1.78-2.35,2.94-3
			c1.16-0.65,2.45-0.97,3.88-0.97c1.26,0,2.45,0.31,3.57,0.93c1.12,0.62,2,1.45,2.63,2.49c0.63,1.04,1.05,2.45,1.27,4.24
			c0.07,0.35,0.12,0.76,0.14,1.22c0.02,0.46,0.04,0.96,0.04,1.5v0.49v0.61v0.73v24.48h9.86V63.71c0-3.46-0.23-6.3-0.69-8.51
			C1737.36,52.28,1736.21,49.8,1734.55,47.76z"/>
		<rect x="1746.82" y="43.52" class="st1" width="9.86" height="46.01"/>
		<rect x="1746.82" y="28.2" class="st1" width="9.86" height="10.01"/>
		<path class="st1" d="M1797.89,49.11c-0.17-0.35-0.31-0.57-0.43-0.65l-0.62-0.69c-1.47-1.81-3.25-3.22-5.33-4.22
			c-2.08-1-4.2-1.5-6.38-1.5c-2.27,0-4.42,0.49-6.43,1.46c-2.02,0.97-3.67,2.39-4.95,4.26v-4.26h-9.1v46.01h9.86V68.69v-1.42
			c0-1.24,0.02-2.32,0.07-3.22c0.05-0.91,0.12-1.8,0.22-2.7c0.22-1.78,0.66-3.28,1.34-4.48c0.68-1.2,1.67-2.18,2.97-2.92
			c1.3-0.74,2.61-1.11,3.91-1.11c1.28,0,2.52,0.34,3.71,1.03c1.2,0.69,2.16,1.68,2.88,2.98c0.77,1.24,1.27,2.99,1.49,5.23
			c0.12,0.51,0.18,1.31,0.18,2.39v0.45v0.53v0.65v0.77v0.97v21.69h9.86V65.69c0-3.81-0.15-6.69-0.43-8.63
			C1800.25,53.95,1799.31,51.3,1797.89,49.11z"/>
		<path class="st1" d="M1850.64,28.2v-12.5h-9.86v12.83h0.01v19.74c-1.52-2-3.41-3.53-5.67-4.6c-2.26-1.07-4.6-1.6-7.01-1.6
			c-2.78,0-5.53,0.72-8.26,2.15c-2.73,1.43-5.03,3.32-6.89,5.65c-1.86,2.34-3.26,4.94-4.2,7.8c-0.48,1.46-0.83,2.93-1.05,4.4
			c-0.22,1.47-0.33,3.02-0.33,4.64c0,2.97,0.49,5.92,1.49,8.84c0.99,2.92,2.36,5.5,4.1,7.74c1.88,2.43,4.09,4.33,6.61,5.69
			c2.52,1.36,5.27,2.05,8.24,2.05c2.73,0,5.35-0.68,7.86-2.05c2.51-1.36,4.49-3.26,5.94-5.69v6.24h9.02V28.2H1850.64z
			 M1837.89,76.21c-2.37,2.69-5.23,4.03-8.59,4.03c-3.41,0-6.26-1.37-8.57-4.11c-2.31-2.74-3.46-6.05-3.46-9.91
			c0-3.54,1.19-6.65,3.57-9.34c2.38-2.69,5.15-4.03,8.32-4.03c3.38,0,6.28,1.32,8.68,3.97c2.4,2.65,3.61,5.86,3.61,9.65
			C1841.45,70.27,1840.26,73.52,1837.89,76.21z"/>
	</g>
	<g>
		<path class="st4" d="M1877.63,46.91c0.58,0,1.11-0.2,1.58-0.59c1.28-1.07,1.58-2.58,0.84-4.23c-0.01-0.03-0.03-0.06-0.05-0.09
			l-14.99-26.34h-1.04h-4.61l0,0h-1.01l16.91,29.74C1875.8,46.39,1876.62,46.91,1877.63,46.91z"/>
		<path class="st4" d="M1893.21,33.76c0.02,0.02,0.04,0.03,0.06,0.05c0.38,0.29,0.89,0.43,1.54,0.43c1.37,0,2.05-0.75,2.39-1.39
			l9.11-16.06c0.22-0.38,0.37-0.75,0.46-1.12h-0.92h-4.44h-1.04l-7.92,13.79c-0.45,0.75-0.57,1.61-0.33,2.46
			C1892.31,32.67,1892.68,33.29,1893.21,33.76z"/>
		<path class="st4" d="M1890.96,40.25l-13.93-24.58h-1.04l0,0h-4.49h-1.04l14.9,26.34l-27.01,47.52h1.04h4.42l0,0h1.04l26.12-45.91
			C1891.73,42.5,1891.73,41.28,1890.96,40.25z"/>
		<path class="st4" d="M1899.72,58.54c-0.47,0-0.98,0.18-1.5,0.53c-0.01,0.01-0.01,0.01-0.02,0.02c-0.75,0.54-1.2,1.19-1.35,1.96
			c-0.15,0.76,0.02,1.57,0.5,2.41l14.81,26.07h1.04l0,0h4.55h1.04l-16.68-29.48C1901.54,59.06,1900.72,58.54,1899.72,58.54z"/>
		<path class="st4" d="M1883.95,71.64c-0.38-0.28-0.88-0.42-1.53-0.42c-0.87,0-1.67,0.43-2.3,1.26c-0.03,0.04-0.05,0.07-0.07,0.11
			l-9.23,16.2c-0.14,0.24-0.25,0.49-0.32,0.74h0.95h4.61h1.04L1884.8,76C1885.77,74.31,1885.46,72.72,1883.95,71.64z"/>
		<path class="st4" d="M1891.88,63.45l26.9-47.78h-0.68l0,0h-4.6h-1.04l-26.21,46.07c-0.02,0.03-0.03,0.06-0.04,0.09
			c-0.67,1.49-0.35,2.63,0.04,3.32l13.86,24.38h1.04h4.47h0.95c-0.09-0.28-0.22-0.57-0.39-0.86L1891.88,63.45z"/>
	</g>
</g>
<rect x="19.94" y="37.72" class="st5" width="502.22" height="71.81"/>
<text transform="matrix(1 0 0 1 19.936 83.5894)" class="st6 st7 st8">Team:</text>
<rect x="19.94" y="122.22" class="st5" width="502.22" height="71.81"/>
<text transform="matrix(1 0 0 1 19.936 168.085)" class="st6 st7 st8">Score:</text>
<path class="st9" d="M547.94,90.82H230.82c-12.43,0-22.5-10.07-22.5-22.5V59c0-12.43,10.07-22.5,22.5-22.5h317.13
	c12.43,0,22.5,10.07,22.5,22.5v9.32C570.44,80.75,560.37,90.82,547.94,90.82z"/>
<path class="st9" d="M574.5,177.13H257.37c-12.43,0-22.5-10.07-22.5-22.5v-9.32c0-12.43,10.07-22.5,22.5-22.5H574.5
	c12.43,0,22.5,10.07,22.5,22.5v9.32C597,167.05,586.93,177.13,574.5,177.13z"/>
<rect x="1676" y="238" width="200" height="600"/>
<rect x="48" y="235" width="200" height="600"/>
<rect x="699" y="908" width="300" height="100"/>
<rect x="1104" y="908" width="300" height="100"/>
<rect x="1500" y="908" width="300" height="100"/>
<rect x="297.5" y="908" width="300" height="100"/>
<line class="st5" x1="686" y1="905" x2="724" y2="905"/>
<circle class="st10" cx="148" cy="956" r="80"/>
<rect x="75" y="937" class="st5" width="144" height="63"/>
<text transform="matrix(1 0 0 1 86.7949 974.9995)" class="st7 st11">HINT</text>
<g>
	<path class="st12" d="M1810.86,294.91h-67.72c-10.57,0-19.14-8.57-19.14-19.14v-12.83c0-10.57,8.57-19.14,19.14-19.14h67.72
		c10.57,0,19.14,8.57,19.14,19.14v12.83C1830,286.34,1821.43,294.91,1810.86,294.91z"/>
	<text transform="matrix(0.9117 0 0 1 1727.4492 283.8311)" class="st7 st13">TIMER</text>
</g>
<g>
	<rect x="300" y="238" class="st14" width="1300" height="600"/>
	<rect x="642.11" y="259.38" class="st5" width="629.89" height="74.62"/>
	<text transform="matrix(1 0 0 1 764.397 320.1826)" class="st15 st7 st16">QUESTION</text>
	<g>
		<path class="st17" d="M1056,820H866c-24.85,0-45-20.15-45-45v0c0-24.85,20.15-45,45-45h190c24.85,0,45,20.15,45,45v0
			C1101,799.85,1080.85,820,1056,820z"/>
		<g>
			<rect x="864.04" y="753.74" class="st5" width="193.02" height="42.89"/>
			<text transform="matrix(1 0 0 1 870.2456 791.7441)" class="st18 st7 st11">SUBMIT</text>
		</g>
	</g>
	<g>
		<g>
			<path class="st19" d="M698.56,398.69h-5.88l-29.26-25.4v25.4h-4.72v-46.66h5.43l29.7,25.67v-25.67h4.72V398.69z"/>
			<path class="st19" d="M718.52,398.69h-13.06v-46.66h13.06v14.87c1.57-1.75,3.04-3,4.41-3.73c1.53-0.8,3.38-1.2,5.57-1.2
				c2.55,0,4.76,0.49,6.63,1.47c2.64,1.39,4.18,3.61,4.61,6.67c0.11,0.82,0.17,2.46,0.17,4.92v23.65h-13.06v-23.86
				c0-2.62-0.09-4.33-0.27-5.13c-0.46-2.05-1.54-3.08-3.25-3.08c-2.3,0-3.76,1.19-4.38,3.55c-0.3,1.12-0.44,2.79-0.44,5.02V398.69z"
				/>
			<path class="st19" d="M778.16,398.69h-12.61l0.41-4.48c-2.19,1.82-3.96,3.08-5.33,3.76c-1.96,1-4.06,1.5-6.29,1.5
				c-2.96,0-5.25-0.89-6.87-2.67c-1.57-1.71-2.36-4.07-2.36-7.08c0-4.47,1.85-7.62,5.54-9.47c2.05-1.03,5.64-1.96,10.77-2.8
				l3.93-0.65v-2.87c0.02-3.37-0.26-5.55-0.85-6.53c-0.71-1.16-2.07-1.74-4.1-1.74c-3.33,0-4.99,1.06-4.99,3.18
				c0,1.32,0.83,2.5,2.5,3.52c-1.98,1.73-4.46,3.22-7.42,4.48c-2.62-1.96-3.93-4.01-3.93-6.15c0-1.82,0.85-3.47,2.56-4.96
				c2.89-2.53,7.2-3.79,12.92-3.79c7.45,0,12.26,1.66,14.42,4.99c1.14,1.75,1.71,5.05,1.71,9.88V398.69z M774.57,360.44h-10.94
				l-3.78-4.69l-3.79,4.69h-5.55l7.11-8.41h9.95L774.57,360.44z M767.29,413.18h-9.33v-9.67h9.33V413.18z M765.34,380.13
				c-2.44,0.14-4.2,0.75-5.3,1.85s-1.64,2.85-1.64,5.26c0,3.87,1.24,5.81,3.73,5.81c2.14,0,3.21-1.74,3.21-5.23V380.13z"/>
			<path class="st19" d="M785.58,409.42v-46.66h13.06v2.36c1.87-2.12,4.09-3.18,6.67-3.18c2.53,0,5.05,0.76,7.55,2.29
				c5.31,3.24,7.96,8.78,7.96,16.65c0,5.95-1.64,10.63-4.92,14.05c-2.89,3.03-6.35,4.55-10.36,4.55c-2.62,0-4.92-1.23-6.9-3.69
				v13.64H785.58z M798.63,371.07v16.95c0,4.53,1.12,6.8,3.35,6.8c1.55,0,2.7-0.99,3.45-2.97c0.93-2.48,1.4-6.43,1.4-11.83
				c0-9.25-1.44-13.88-4.31-13.88c-1.19,0-2.15,0.55-2.91,1.64C798.96,368.75,798.63,369.84,798.63,371.07z"/>
			<path class="st19" d="M876.67,394.79c-2.62,3.12-7.21,4.68-13.77,4.68c-6.24,0-11.2-1.5-14.87-4.51
				c-3.96-3.24-5.95-7.91-5.95-14.01c0-5.9,1.98-10.58,5.95-14.05c3.78-3.3,8.67-4.96,14.66-4.96c3.62,0,6.64,0.56,9.06,1.67
				c3.21,1.5,4.82,3.86,4.82,7.08c0,2.23-1.15,4.44-3.45,6.63c-1.57-0.02-3.05-0.5-4.44-1.42c-1.39-0.92-2.44-2.1-3.14-3.54
				c1.59-1.28,2.39-2.44,2.39-3.49c0-1.82-1.29-2.73-3.86-2.73c-2.51,0-4.39,1.16-5.64,3.49c-0.93,1.73-1.4,4.9-1.4,9.5
				c0,6.18,0.67,10.47,2.02,12.89c1.12,2.01,2.88,3.01,5.3,3.01c1.44,0,2.72-0.39,3.86-1.16c1.28-0.89,1.91-2.02,1.91-3.38
				c0-0.46-0.08-1.05-0.24-1.78C873.71,389.12,875.98,391.15,876.67,394.79z"/>
			<path class="st19" d="M912.08,398.69h-12.61l0.41-4.48c-2.19,1.82-3.96,3.08-5.33,3.76c-1.96,1-4.06,1.5-6.29,1.5
				c-2.96,0-5.25-0.89-6.87-2.67c-1.57-1.71-2.36-4.07-2.36-7.08c0-4.47,1.85-7.62,5.54-9.47c2.05-1.03,5.64-1.96,10.77-2.8
				l3.93-0.65v-2.87c0.02-3.37-0.26-5.55-0.85-6.53c-0.71-1.16-2.07-1.74-4.1-1.74c-3.33,0-4.99,1.06-4.99,3.18
				c0,1.32,0.83,2.5,2.5,3.52c-1.98,1.73-4.46,3.22-7.42,4.48c-2.62-1.96-3.93-4.01-3.93-6.15c0-1.82,0.85-3.47,2.56-4.96
				c2.89-2.53,7.2-3.79,12.92-3.79c7.45,0,12.26,1.66,14.42,4.99c1.14,1.75,1.71,5.05,1.71,9.88V398.69z M908.49,360.44h-10.94
				l-3.78-4.69l-3.79,4.69h-5.55l7.11-8.41h9.95L908.49,360.44z M899.26,380.13c-2.44,0.14-4.2,0.75-5.3,1.85s-1.64,2.85-1.64,5.26
				c0,3.87,1.24,5.81,3.73,5.81c2.14,0,3.21-1.74,3.21-5.23V380.13z"/>
			<path class="st19" d="M940.51,362.77h13.06v35.92h-13.06v-4.14c-3.08,3.28-6.54,4.92-10.39,4.92c-4.85,0-8.15-1.62-9.88-4.85
				c-0.77-1.44-1.16-4.17-1.16-8.2v-23.65h13.06v23.86c0,2.67,0.07,4.34,0.21,5.02c0.39,2.12,1.38,3.18,2.97,3.18
				c2.44,0,4-1.18,4.68-3.55c0.34-1.21,0.51-2.88,0.51-5.02V362.77z"/>
			<path class="st19" d="M991.54,398.69h-13.06v-46.66h13.06v14.87c1.57-1.75,3.04-3,4.41-3.73c1.53-0.8,3.38-1.2,5.57-1.2
				c2.55,0,4.76,0.49,6.63,1.47c2.64,1.39,4.18,3.61,4.61,6.67c0.11,0.82,0.17,2.46,0.17,4.92v23.65h-13.06v-23.86
				c0-2.62-0.09-4.33-0.27-5.13c-0.46-2.05-1.54-3.08-3.25-3.08c-2.3,0-3.76,1.19-4.38,3.55c-0.3,1.12-0.44,2.79-0.44,5.02V398.69z"
				/>
			<path class="st19" d="M1037,361.95c5.35-0.02,9.81,1.86,13.36,5.64c3.49,3.69,5.23,8.23,5.23,13.6c0,5.49-2.04,10.03-6.12,13.6
				c-3.55,3.12-7.71,4.68-12.48,4.68c-5.61,0-10.29-2.08-14.05-6.25c-3.24-3.6-4.85-7.85-4.85-12.75c0-5.42,2-9.97,6.02-13.64
				C1027.67,363.6,1031.97,361.97,1037,361.95z M1037.58,360.48h-3.14l-0.07-4.31c0.42,0.16,0.91,0.24,1.46,0.24
				c1.42,0,2.13-1.24,2.13-3.73c0-2.42-0.62-3.62-1.85-3.62c-1.16,0-1.74,0.67-1.74,2.02c0,0.55,0.18,1.11,0.55,1.67
				c-0.75,0.52-1.75,0.95-3.01,1.26c-0.23-0.57-0.34-1.21-0.34-1.91c0-1.55,0.57-2.76,1.71-3.62c1.03-0.82,2.34-1.23,3.93-1.23
				c2.53,0,4.34,0.88,5.43,2.63c0.55,0.84,0.82,1.82,0.82,2.94c0,1.62-0.56,2.93-1.67,3.93c-1.19,1.07-2.59,1.61-4.2,1.61V360.48z
				 M1036.83,365.67c-3.01-0.02-4.51,4.96-4.51,14.94c0,10.09,1.5,15.14,4.51,15.14s4.51-5.01,4.51-15.04
				C1041.34,370.71,1039.84,365.69,1036.83,365.67z"/>
			<path class="st19" d="M1067.94,348c1.94,0,3.65,0.56,5.13,1.67c1.59,1.23,2.39,2.79,2.39,4.68c0,1.91-0.82,3.48-2.46,4.68
				c-1.48,1.12-3.21,1.67-5.2,1.67s-3.71-0.56-5.2-1.67c-1.62-1.21-2.43-2.77-2.43-4.68c0-1.94,0.83-3.51,2.5-4.72
				C1064.18,348.55,1065.93,348,1067.94,348z M1074.46,398.69h-13.3v-35.92h13.3V398.69z"/>
			<path class="st19" d="M1133.39,372.71c1.37-1.85,2.1-3.7,2.19-5.57h-5.3v-9.67h9.3v8.24c0,2.8-0.65,5.26-1.95,7.38
				c-0.8,1.3-1.79,2.51-2.97,3.62c0.3,1.41,0.44,2.91,0.44,4.48c0,5.49-2.04,10.03-6.12,13.6c-3.55,3.12-7.71,4.68-12.48,4.68
				c-5.61,0-10.29-2.08-14.05-6.25c-3.24-3.6-4.85-7.85-4.85-12.75c0-5.42,2-9.97,6.02-13.64c3.55-3.24,7.85-4.86,12.89-4.89
				c5.13-0.02,9.55,1.83,13.26,5.57C1131.32,369.07,1132.52,370.8,1133.39,372.71z M1117.09,360.48h-3.14l-0.07-4.31
				c0.42,0.16,0.91,0.24,1.46,0.24c1.42,0,2.13-1.24,2.13-3.73c0-2.42-0.62-3.62-1.85-3.62c-1.16,0-1.74,0.67-1.74,2.02
				c0,0.55,0.18,1.11,0.55,1.67c-0.75,0.52-1.75,0.95-3.01,1.26c-0.23-0.57-0.34-1.21-0.34-1.91c0-1.55,0.57-2.76,1.71-3.62
				c1.03-0.82,2.34-1.23,3.93-1.23c2.53,0,4.34,0.88,5.43,2.63c0.55,0.84,0.82,1.82,0.82,2.94c0,1.62-0.56,2.93-1.67,3.93
				c-1.19,1.07-2.59,1.61-4.2,1.61V360.48z M1116.33,365.67c-3.01-0.02-4.51,4.96-4.51,14.94c0,10.09,1.5,15.14,4.51,15.14
				s4.51-5.01,4.51-15.04C1120.85,370.71,1119.34,365.69,1116.33,365.67z"/>
			<path class="st19" d="M1178.51,352.03h13.06v2.8h3.76v4.68h-3.76v39.17h-13.06v-2.36c-1.87,2.12-4.08,3.18-6.63,3.18
				c-2.55,0-5.08-0.76-7.59-2.29c-5.31-3.24-7.96-8.8-7.96-16.68c0-5.95,1.64-10.63,4.92-14.05c2.89-3.01,6.35-4.51,10.36-4.51
				c2.62,0,4.92,1.23,6.9,3.69v-6.15h-9.19v-4.68h9.19V352.03z M1178.51,390.38v-16.95c0-4.53-1.12-6.8-3.35-6.8
				c-1.55,0-2.7,0.99-3.45,2.97c-0.93,2.48-1.4,6.43-1.4,11.83c0,9.25,1.44,13.88,4.31,13.88c1.18,0,2.15-0.55,2.91-1.64
				C1178.18,392.71,1178.51,391.61,1178.51,390.38z"/>
			<path class="st19" d="M1230.25,398.69h-12.61l0.41-4.48c-2.19,1.82-3.96,3.08-5.33,3.76c-1.96,1-4.06,1.5-6.29,1.5
				c-2.96,0-5.25-0.89-6.87-2.67c-1.57-1.71-2.36-4.07-2.36-7.08c0-4.47,1.85-7.62,5.54-9.47c2.05-1.03,5.64-1.96,10.77-2.8
				l3.93-0.65v-2.87c0.02-3.37-0.26-5.55-0.85-6.53c-0.71-1.16-2.07-1.74-4.1-1.74c-3.33,0-4.99,1.06-4.99,3.18
				c0,1.32,0.83,2.5,2.5,3.52c-1.98,1.73-4.46,3.22-7.42,4.48c-2.62-1.96-3.93-4.01-3.93-6.15c0-1.82,0.85-3.47,2.56-4.96
				c2.89-2.53,7.2-3.79,12.92-3.79c7.45,0,12.26,1.66,14.42,4.99c1.14,1.75,1.71,5.05,1.71,9.88V398.69z M1226.67,360.44h-10.94
				l-3.78-4.69l-3.79,4.69h-5.55l7.11-8.41h9.95L1226.67,360.44z M1217.44,380.13c-2.44,0.14-4.2,0.75-5.3,1.85
				s-1.64,2.85-1.64,5.26c0,3.87,1.24,5.81,3.73,5.81c2.14,0,3.21-1.74,3.21-5.23V380.13z"/>
			<path class="st19" d="M1262.76,362.77h4.95l-15.45,35.65c-1.87,4.31-3.41,7.15-4.61,8.54c-1.89,2.19-4.26,3.28-7.11,3.28
				c-2.05,0-3.78-0.79-5.2-2.36l2.63-5.5c0.89,1.5,2.11,2.26,3.66,2.26c2.07,0,3.63-1.11,4.68-3.32l2.09-4.45l-14.7-34.1h14.39
				l7.32,17.38L1262.76,362.77z"/>
		</g>
	</g>
	<rect x="372" y="424" class="st5" width="1179" height="297"/>
	<g>
		<rect x="363" y="424" class="st20" width="1179" height="297"/>
	</g>
</g>
<g>
	<g>
		<path d="M421.84,463.35c-2.2,2.47-6.04,3.71-11.52,3.71c-5.65,0-10.22-1.38-13.72-4.15c-3.73-2.95-5.59-7.28-5.59-12.99
			c0-5.48,1.86-9.83,5.59-13.04c3.53-3.04,8.08-4.57,13.65-4.57c3.89,0,6.88,0.63,8.98,1.88c1.87,1.12,2.81,2.64,2.81,4.54
			c0,2.2-1.15,3.3-3.44,3.3c-1.87,0-3.44-0.66-4.71-1.99c0.76-0.71,1.15-1.36,1.15-1.95c0-1.57-1.23-2.36-3.69-2.36
			c-2.6,0-4.65,1.11-6.13,3.34c-1.07,1.63-1.61,4.74-1.61,9.36c0,4,0.28,6.99,0.85,8.97c0.78,2.75,2.31,4.58,4.59,5.51
			c1.19,0.49,2.45,0.73,3.78,0.73c2.98,0,4.47-1.21,4.47-3.62c0-0.18-0.02-0.44-0.05-0.78
			C419.85,459.51,421.38,460.87,421.84,463.35z"/>
		<path d="M447.18,466.35h-9.01l0.29-3.2c-1.56,1.3-2.83,2.2-3.81,2.69c-1.4,0.72-2.9,1.07-4.49,1.07c-2.12,0-3.75-0.63-4.91-1.9
			c-1.12-1.22-1.68-2.91-1.68-5.05c0-3.19,1.32-5.44,3.96-6.76c1.46-0.73,4.03-1.4,7.69-2l2.81-0.46v-2.05
			c0.02-2.41-0.19-3.96-0.61-4.66c-0.5-0.83-1.48-1.25-2.93-1.25c-2.38,0-3.56,0.76-3.56,2.27c0,0.94,0.59,1.78,1.78,2.51
			c-1.42,1.24-3.18,2.3-5.3,3.2c-1.87-1.4-2.81-2.86-2.81-4.39c0-1.3,0.61-2.48,1.83-3.54c2.07-1.81,5.14-2.71,9.23-2.71
			c5.32,0,8.76,1.19,10.3,3.56c0.81,1.25,1.22,3.61,1.22,7.06V466.35z M444.61,439.03h-7.82l-2.7-3.35l-2.71,3.35h-3.96l5.08-6.01
			h7.1L444.61,439.03z M438.02,453.09c-1.74,0.1-3,0.54-3.78,1.32s-1.17,2.03-1.17,3.76c0,2.77,0.89,4.15,2.66,4.15
			c1.53,0,2.29-1.25,2.29-3.74V453.09z"/>
		<path d="M467.49,440.69h9.33v25.66h-9.33v-2.95c-2.2,2.34-4.67,3.52-7.42,3.52c-3.47,0-5.82-1.16-7.06-3.47
			c-0.55-1.03-0.83-2.98-0.83-5.86v-16.89h9.33v17.04c0,1.9,0.05,3.1,0.15,3.59c0.28,1.51,0.98,2.27,2.12,2.27
			c1.74,0,2.86-0.85,3.34-2.54c0.24-0.86,0.37-2.06,0.37-3.59V440.69z"/>
		<path d="M504.09,444.11v16.01c0,1.47,0.07,2.36,0.22,2.69c0.33,0.73,0.88,1.1,1.66,1.1c1.22,0,2.21-0.82,2.98-2.47
			c1.09,0.75,1.96,2.03,2.61,3.83c-2.2,1.09-4.72,1.64-7.57,1.64c-3.87,0-6.54-0.79-7.98-2.37c-0.94-1.04-1.42-2.61-1.42-4.69
			v-15.74h-2.64v-3.42h1.2c1.81,0,3.45-0.87,4.93-2.61c1.16-1.33,2.1-3.02,2.83-5.05h3.17v7.67h5.44v3.42H504.09z"/>
		<path d="M523.74,466.35h-9.5v-25.66h9.5v6.18c1.87-4.74,4.36-7.1,7.47-7.1c0.42,0,0.94,0.02,1.56,0.07
			c0.18,1.03,0.27,1.89,0.27,2.59c0,1.3-0.33,2.79-0.98,4.47c-0.96-0.68-1.84-1.03-2.64-1.03c-1.87,0-3.34,0.98-4.39,2.95
			c-0.86,1.6-1.29,3.41-1.29,5.44V466.35z"/>
		<path d="M558.02,466.35h-9.01l0.29-3.2c-1.56,1.3-2.83,2.2-3.81,2.69c-1.4,0.72-2.9,1.07-4.49,1.07c-2.12,0-3.75-0.63-4.91-1.9
			c-1.12-1.22-1.68-2.91-1.68-5.05c0-3.19,1.32-5.44,3.96-6.76c1.46-0.73,4.03-1.4,7.69-2l2.81-0.46v-2.05
			c0.02-2.41-0.19-3.96-0.61-4.66c-0.5-0.83-1.48-1.25-2.93-1.25c-2.38,0-3.56,0.76-3.56,2.27c0,0.94,0.59,1.78,1.78,2.51
			c-1.42,1.24-3.18,2.3-5.3,3.2c-1.87-1.4-2.81-2.86-2.81-4.39c0-1.3,0.61-2.48,1.83-3.54c2.07-1.81,5.14-2.71,9.23-2.71
			c5.32,0,8.76,1.19,10.3,3.56c0.81,1.25,1.22,3.61,1.22,7.06V466.35z M547.84,439.05h-2.25l-0.05-3.08
			c0.3,0.11,0.65,0.17,1.05,0.17c1.01,0,1.52-0.89,1.52-2.66c0-1.73-0.44-2.59-1.32-2.59c-0.83,0-1.25,0.48-1.25,1.44
			c0,0.39,0.13,0.79,0.39,1.2c-0.54,0.37-1.25,0.68-2.15,0.9c-0.16-0.41-0.24-0.86-0.24-1.37c0-1.11,0.41-1.97,1.22-2.59
			c0.73-0.59,1.67-0.88,2.81-0.88c1.81,0,3.1,0.63,3.88,1.88c0.39,0.6,0.59,1.3,0.59,2.1c0,1.16-0.4,2.09-1.2,2.81
			c-0.85,0.77-1.85,1.15-3,1.15V439.05z M548.86,453.09c-1.74,0.1-3,0.54-3.78,1.32s-1.17,2.03-1.17,3.76
			c0,2.77,0.89,4.15,2.66,4.15c1.53,0,2.29-1.25,2.29-3.74V453.09z"/>
		<path d="M585.31,466.35h-9.5v-33.33h9.5V466.35z"/>
		<path d="M614.9,447.79c0.98-1.32,1.5-2.64,1.56-3.98h-3.78v-6.91h6.64v5.88c0,2-0.46,3.76-1.39,5.27
			c-0.57,0.93-1.28,1.79-2.12,2.59c0.21,1.01,0.32,2.08,0.32,3.2c0,3.92-1.46,7.16-4.37,9.72c-2.54,2.23-5.51,3.34-8.91,3.34
			c-4,0-7.35-1.49-10.03-4.47c-2.31-2.57-3.47-5.61-3.47-9.11c0-3.87,1.43-7.12,4.3-9.74c2.54-2.31,5.61-3.47,9.2-3.49
			c3.66-0.02,6.82,1.31,9.47,3.98C613.42,445.19,614.28,446.43,614.9,447.79z M604.84,439.03h-3.81l-2.83-6.01h6.64V439.03z
			 M602.72,442.77c-2.15-0.02-3.22,3.54-3.22,10.67c0,7.21,1.07,10.82,3.22,10.82s3.22-3.58,3.22-10.74
			C605.94,446.36,604.87,442.78,602.72,442.77z"/>
		<path d="M624.94,430.14c1.38,0,2.6,0.4,3.66,1.2c1.14,0.88,1.71,1.99,1.71,3.34c0,1.37-0.59,2.48-1.76,3.34
			c-1.06,0.8-2.29,1.2-3.71,1.2s-2.65-0.4-3.71-1.2c-1.16-0.86-1.73-1.98-1.73-3.34c0-1.38,0.59-2.51,1.78-3.37
			C622.25,430.53,623.5,430.14,624.94,430.14z M629.6,466.35h-9.5v-25.66h9.5V466.35z"/>
		<path d="M641.44,466.35h-6.67v-6.91h6.67V466.35z"/>
		<path d="M653.11,466.35h-6.67v-6.91h6.67V466.35z"/>
		<path d="M664.78,466.35h-6.67v-6.91h6.67V466.35z"/>
		<path d="M676.45,466.35h-6.67v-6.91h6.67V466.35z"/>
	</g>
</g>
</svg>
