<svg width="1920" height="1080" viewBox="0 0 1920 1080" fill="none" xmlns="http://www.w3.org/2000/svg">
<rect width="1920" height="1080" fill="#E5E5E5"/>
<g clip-path="url(#clip0)">
<path d="M1920 0H0V1080H1920V0Z" fill="white"/>
<path d="M1920 0H0V1080H1920V0Z" fill="#091629"/>
<path d="M1682.86 102.778H1678.9V115.047H1677.29V102.778H1673.34V101.324H1682.86V102.778ZM1690.78 110.54H1683.86C1683.89 111.631 1684.18 112.473 1684.74 113.066C1685.3 113.659 1686.07 113.956 1687.06 113.956C1688.16 113.956 1689.17 113.592 1690.1 112.865V114.339C1689.24 114.964 1688.1 115.277 1686.68 115.277C1685.3 115.277 1684.21 114.833 1683.42 113.946C1682.63 113.053 1682.23 111.8 1682.23 110.186C1682.23 108.661 1682.66 107.42 1683.52 106.463C1684.39 105.5 1685.47 105.018 1686.75 105.018C1688.03 105.018 1689.02 105.433 1689.73 106.262C1690.43 107.091 1690.78 108.243 1690.78 109.717V110.54ZM1689.17 109.209C1689.16 108.303 1688.94 107.598 1688.51 107.094C1688.08 106.59 1687.49 106.338 1686.72 106.338C1685.98 106.338 1685.35 106.603 1684.84 107.133C1684.32 107.662 1684 108.354 1683.88 109.209H1689.17ZM1699.84 114.597C1699.09 115.05 1698.2 115.277 1697.16 115.277C1695.76 115.277 1694.64 114.824 1693.77 113.918C1692.92 113.005 1692.49 111.825 1692.49 110.377C1692.49 108.763 1692.95 107.468 1693.88 106.492C1694.8 105.509 1696.04 105.018 1697.58 105.018C1698.44 105.018 1699.2 105.177 1699.86 105.496V107.104C1699.13 106.594 1698.35 106.338 1697.53 106.338C1696.52 106.338 1695.7 106.699 1695.06 107.42C1694.42 108.134 1694.1 109.075 1694.1 110.243C1694.1 111.391 1694.4 112.297 1695 112.961C1695.6 113.624 1696.42 113.956 1697.43 113.956C1698.28 113.956 1699.09 113.672 1699.84 113.104V114.597ZM1710.35 115.047H1708.78V109.401C1708.78 107.359 1708.02 106.338 1706.5 106.338C1705.74 106.338 1705.09 106.635 1704.57 107.228C1704.05 107.815 1703.78 108.571 1703.78 109.496V115.047H1702.21V100.539H1703.78V106.874H1703.82C1704.58 105.637 1705.65 105.018 1707.04 105.018C1709.25 105.018 1710.35 106.348 1710.35 109.008V115.047ZM1721.45 115.047H1719.88V109.458C1719.88 107.378 1719.12 106.338 1717.6 106.338C1716.82 106.338 1716.17 106.635 1715.65 107.228C1715.14 107.815 1714.88 108.559 1714.88 109.458V115.047H1713.32V105.247H1714.88V106.874H1714.92C1715.66 105.637 1716.74 105.018 1718.14 105.018C1719.21 105.018 1720.03 105.366 1720.6 106.061C1721.17 106.75 1721.45 107.748 1721.45 109.056V115.047ZM1728.51 115.277C1727.06 115.277 1725.91 114.821 1725.04 113.908C1724.18 112.989 1723.75 111.774 1723.75 110.262C1723.75 108.616 1724.2 107.331 1725.1 106.405C1726 105.48 1727.21 105.018 1728.74 105.018C1730.2 105.018 1731.34 105.468 1732.16 106.367C1732.98 107.267 1733.39 108.514 1733.39 110.109C1733.39 111.672 1732.95 112.926 1732.06 113.87C1731.18 114.808 1730 115.277 1728.51 115.277ZM1728.63 106.338C1727.62 106.338 1726.82 106.683 1726.23 107.372C1725.65 108.055 1725.35 108.999 1725.35 110.205C1725.35 111.366 1725.65 112.281 1726.24 112.951C1726.84 113.621 1727.63 113.956 1728.63 113.956C1729.64 113.956 1730.42 113.627 1730.96 112.97C1731.51 112.313 1731.79 111.379 1731.79 110.166C1731.79 108.941 1731.51 107.997 1730.96 107.334C1730.42 106.67 1729.64 106.338 1728.63 106.338ZM1737.47 115.047H1735.9V100.539H1737.47V115.047ZM1744.74 115.277C1743.29 115.277 1742.14 114.821 1741.27 113.908C1740.41 112.989 1739.98 111.774 1739.98 110.262C1739.98 108.616 1740.43 107.331 1741.33 106.405C1742.23 105.48 1743.44 105.018 1744.97 105.018C1746.43 105.018 1747.57 105.468 1748.39 106.367C1749.21 107.267 1749.62 108.514 1749.62 110.109C1749.62 111.672 1749.18 112.926 1748.29 113.87C1747.41 114.808 1746.23 115.277 1744.74 115.277ZM1744.86 106.338C1743.85 106.338 1743.05 106.683 1742.47 107.372C1741.88 108.055 1741.58 108.999 1741.58 110.205C1741.58 111.366 1741.88 112.281 1742.47 112.951C1743.07 113.621 1743.86 113.956 1744.86 113.956C1745.87 113.956 1746.65 113.627 1747.19 112.97C1747.74 112.313 1748.02 111.379 1748.02 110.166C1748.02 108.941 1747.74 107.997 1747.19 107.334C1746.65 106.67 1745.87 106.338 1744.86 106.338ZM1760.49 114.262C1760.49 117.861 1758.77 119.66 1755.33 119.66C1754.11 119.66 1753.06 119.43 1752.15 118.971V117.401C1753.25 118.014 1754.31 118.32 1755.31 118.32C1757.72 118.32 1758.93 117.038 1758.93 114.473V113.401H1758.89C1758.14 114.651 1757.02 115.277 1755.52 115.277C1754.3 115.277 1753.32 114.843 1752.57 113.975C1751.83 113.101 1751.46 111.93 1751.46 110.463C1751.46 108.798 1751.86 107.474 1752.66 106.492C1753.46 105.509 1754.56 105.018 1755.95 105.018C1757.27 105.018 1758.25 105.547 1758.89 106.606H1758.93V105.247H1760.49V114.262ZM1758.93 110.616V109.171C1758.93 108.393 1758.66 107.726 1758.13 107.171C1757.61 106.616 1756.95 106.338 1756.17 106.338C1755.2 106.338 1754.44 106.693 1753.89 107.401C1753.34 108.102 1753.07 109.088 1753.07 110.358C1753.07 111.449 1753.33 112.323 1753.85 112.98C1754.38 113.631 1755.08 113.956 1755.95 113.956C1756.83 113.956 1757.54 113.643 1758.09 113.018C1758.65 112.393 1758.93 111.592 1758.93 110.616ZM1771.47 105.247L1766.96 116.616C1766.16 118.645 1765.03 119.66 1763.58 119.66C1763.17 119.66 1762.83 119.618 1762.55 119.535V118.128C1762.89 118.243 1763.2 118.301 1763.48 118.301C1764.27 118.301 1764.86 117.829 1765.26 116.884L1766.05 115.028L1762.22 105.247H1763.96L1766.61 112.789C1766.64 112.884 1766.71 113.133 1766.81 113.535H1766.87C1766.9 113.382 1766.96 113.139 1767.06 112.808L1769.84 105.247H1771.47ZM1790.78 115.267C1790.42 115.267 1790.1 115.216 1789.82 115.114C1789.54 115.018 1789.29 114.881 1789.05 114.702C1788.82 114.517 1788.59 114.294 1788.36 114.033C1788.15 113.771 1787.92 113.474 1787.67 113.143C1787.42 113.417 1787.12 113.682 1786.78 113.937C1786.45 114.192 1786.08 114.419 1785.67 114.616C1785.26 114.814 1784.82 114.97 1784.33 115.085C1783.85 115.206 1783.32 115.267 1782.75 115.267C1782.07 115.267 1781.43 115.181 1780.86 115.009C1780.29 114.836 1779.79 114.584 1779.39 114.253C1778.98 113.915 1778.66 113.5 1778.43 113.009C1778.21 112.517 1778.09 111.953 1778.09 111.315C1778.09 110.339 1778.37 109.506 1778.93 108.817C1779.48 108.122 1780.27 107.554 1781.28 107.114C1781.09 106.973 1780.9 106.811 1780.71 106.626C1780.51 106.434 1780.34 106.22 1780.19 105.984C1780.04 105.742 1779.92 105.477 1779.83 105.19C1779.74 104.897 1779.69 104.578 1779.69 104.233C1779.69 103.729 1779.78 103.282 1779.96 102.893C1780.14 102.504 1780.4 102.176 1780.72 101.908C1781.03 101.64 1781.41 101.439 1781.84 101.305C1782.28 101.164 1782.75 101.094 1783.25 101.094C1783.75 101.094 1784.2 101.164 1784.61 101.305C1785.03 101.439 1785.38 101.633 1785.67 101.888C1785.97 102.144 1786.21 102.45 1786.37 102.807C1786.54 103.164 1786.62 103.563 1786.62 104.003C1786.62 104.769 1786.4 105.407 1785.96 105.917C1785.53 106.421 1784.87 106.852 1784 107.209C1784.44 107.382 1784.84 107.592 1785.19 107.841C1785.55 108.09 1785.88 108.367 1786.18 108.673C1786.49 108.98 1786.77 109.308 1787.03 109.659C1787.29 110.01 1787.55 110.374 1787.81 110.75C1788.32 110.029 1788.71 109.235 1788.97 108.367C1789.24 107.5 1789.37 106.59 1789.37 105.64C1789.37 105.397 1789.35 105.171 1789.32 104.96C1789.29 104.743 1789.26 104.53 1789.2 104.319H1790.73C1790.78 104.53 1790.81 104.731 1790.81 104.922C1790.82 105.107 1790.84 105.33 1790.85 105.592C1790.85 106.173 1790.79 106.756 1790.67 107.343C1790.55 107.93 1790.38 108.501 1790.18 109.056C1789.98 109.605 1789.74 110.128 1789.46 110.626C1789.19 111.123 1788.91 111.58 1788.61 111.994C1788.83 112.3 1789.04 112.568 1789.22 112.798C1789.41 113.021 1789.59 113.21 1789.78 113.363C1789.97 113.516 1790.16 113.631 1790.36 113.707C1790.57 113.777 1790.8 113.812 1791.05 113.812C1791.24 113.812 1791.44 113.787 1791.63 113.736C1791.83 113.685 1792.04 113.621 1792.25 113.545V114.999C1792.02 115.088 1791.78 115.155 1791.52 115.2C1791.27 115.245 1791.03 115.267 1790.78 115.267ZM1782.75 113.908C1783.24 113.908 1783.69 113.857 1784.09 113.755C1784.5 113.647 1784.88 113.506 1785.22 113.334C1785.57 113.155 1785.88 112.951 1786.16 112.722C1786.44 112.485 1786.7 112.24 1786.93 111.985C1786.54 111.379 1786.18 110.862 1785.85 110.434C1785.52 110.001 1785.19 109.627 1784.85 109.315C1784.52 109.002 1784.16 108.734 1783.78 108.511C1783.4 108.288 1782.96 108.08 1782.47 107.889C1782.07 108.048 1781.7 108.227 1781.36 108.425C1781.02 108.616 1780.73 108.846 1780.48 109.114C1780.23 109.375 1780.04 109.682 1779.9 110.032C1779.76 110.383 1779.69 110.795 1779.69 111.267C1779.69 111.701 1779.77 112.084 1779.93 112.415C1780.09 112.747 1780.31 113.025 1780.58 113.248C1780.86 113.465 1781.19 113.631 1781.56 113.746C1781.93 113.854 1782.33 113.908 1782.75 113.908ZM1785.15 104.137C1785.15 103.818 1785.09 103.547 1784.96 103.324C1784.85 103.101 1784.7 102.916 1784.51 102.769C1784.34 102.622 1784.14 102.517 1783.91 102.453C1783.69 102.383 1783.47 102.348 1783.25 102.348C1782.63 102.348 1782.13 102.517 1781.75 102.855C1781.38 103.193 1781.19 103.653 1781.18 104.233C1781.18 104.495 1781.22 104.74 1781.3 104.97C1781.38 105.2 1781.49 105.413 1781.63 105.611C1781.78 105.809 1781.95 105.984 1782.14 106.137C1782.33 106.291 1782.54 106.421 1782.75 106.53C1783.56 106.249 1784.16 105.924 1784.55 105.554C1784.95 105.177 1785.15 104.705 1785.15 104.137ZM1799.19 114.492V112.597C1799.4 112.789 1799.66 112.961 1799.96 113.114C1800.27 113.267 1800.59 113.398 1800.92 113.506C1801.26 113.608 1801.59 113.688 1801.93 113.746C1802.27 113.803 1802.58 113.832 1802.87 113.832C1803.86 113.832 1804.6 113.65 1805.08 113.286C1805.57 112.916 1805.82 112.387 1805.82 111.698C1805.82 111.328 1805.73 111.005 1805.57 110.731C1805.41 110.457 1805.19 110.208 1804.9 109.985C1804.61 109.755 1804.27 109.538 1803.87 109.334C1803.49 109.123 1803.06 108.903 1802.61 108.673C1802.13 108.431 1801.69 108.185 1801.27 107.937C1800.86 107.688 1800.5 107.413 1800.19 107.114C1799.88 106.814 1799.64 106.476 1799.46 106.099C1799.29 105.716 1799.2 105.27 1799.2 104.759C1799.2 104.134 1799.34 103.592 1799.62 103.133C1799.89 102.667 1800.25 102.284 1800.7 101.984C1801.14 101.684 1801.65 101.461 1802.22 101.314C1802.79 101.168 1803.38 101.094 1803.97 101.094C1805.32 101.094 1806.31 101.257 1806.93 101.582V103.391C1806.12 102.83 1805.08 102.549 1803.81 102.549C1803.46 102.549 1803.11 102.587 1802.76 102.664C1802.4 102.734 1802.09 102.852 1801.82 103.018C1801.54 103.184 1801.32 103.397 1801.15 103.659C1800.98 103.92 1800.89 104.239 1800.89 104.616C1800.89 104.967 1800.95 105.27 1801.08 105.525C1801.21 105.78 1801.41 106.013 1801.66 106.224C1801.92 106.434 1802.23 106.638 1802.59 106.836C1802.96 107.034 1803.39 107.251 1803.87 107.487C1804.36 107.729 1804.82 107.984 1805.26 108.252C1805.7 108.52 1806.09 108.817 1806.42 109.142C1806.75 109.468 1807.01 109.828 1807.21 110.224C1807.4 110.619 1807.5 111.072 1807.5 111.583C1807.5 112.259 1807.37 112.833 1807.1 113.305C1806.84 113.771 1806.48 114.151 1806.03 114.444C1805.58 114.738 1805.06 114.948 1804.48 115.076C1803.89 115.21 1803.27 115.277 1802.62 115.277C1802.4 115.277 1802.14 115.258 1801.82 115.219C1801.5 115.187 1801.17 115.136 1800.84 115.066C1800.51 115.002 1800.19 114.923 1799.89 114.827C1799.6 114.725 1799.36 114.613 1799.19 114.492ZM1813.94 114.951C1813.57 115.155 1813.08 115.258 1812.48 115.258C1810.76 115.258 1809.9 114.301 1809.9 112.387V106.587H1808.22V105.247H1809.9V102.855L1811.47 102.348V105.247H1813.94V106.587H1811.47V112.109C1811.47 112.766 1811.58 113.235 1811.81 113.516C1812.03 113.797 1812.4 113.937 1812.92 113.937C1813.31 113.937 1813.66 113.828 1813.94 113.612V114.951ZM1823.05 115.047H1821.48V113.516H1821.44C1820.76 114.69 1819.76 115.277 1818.43 115.277C1817.45 115.277 1816.69 115.018 1816.13 114.502C1815.59 113.985 1815.31 113.299 1815.31 112.444C1815.31 110.613 1816.39 109.548 1818.55 109.248L1821.48 108.836C1821.48 107.171 1820.81 106.338 1819.46 106.338C1818.28 106.338 1817.22 106.74 1816.27 107.544V105.937C1817.23 105.324 1818.34 105.018 1819.6 105.018C1821.9 105.018 1823.05 106.236 1823.05 108.673V115.047ZM1821.48 110.09L1819.12 110.415C1818.39 110.517 1817.84 110.699 1817.47 110.961C1817.1 111.216 1816.92 111.672 1816.92 112.329C1816.92 112.808 1817.09 113.2 1817.43 113.506C1817.77 113.806 1818.23 113.956 1818.79 113.956C1819.57 113.956 1820.21 113.685 1820.72 113.143C1821.23 112.594 1821.48 111.902 1821.48 111.066V110.09ZM1831.12 106.836C1830.85 106.626 1830.45 106.52 1829.93 106.52C1829.26 106.52 1828.7 106.836 1828.25 107.468C1827.8 108.099 1827.58 108.961 1827.58 110.052V115.047H1826.01V105.247H1827.58V107.267H1827.62C1827.84 106.578 1828.18 106.042 1828.64 105.659C1829.1 105.27 1829.61 105.075 1830.18 105.075C1830.59 105.075 1830.9 105.12 1831.12 105.209V106.836ZM1837.37 114.951C1837 115.155 1836.51 115.258 1835.9 115.258C1834.19 115.258 1833.33 114.301 1833.33 112.387V106.587H1831.65V105.247H1833.33V102.855L1834.9 102.348V105.247H1837.37V106.587H1834.9V112.109C1834.9 112.766 1835.01 113.235 1835.24 113.516C1835.46 113.797 1835.83 113.937 1836.35 113.937C1836.74 113.937 1837.08 113.828 1837.37 113.612V114.951ZM1847.39 115.047H1845.82V113.497H1845.78C1845.13 114.683 1844.12 115.277 1842.76 115.277C1840.42 115.277 1839.25 113.886 1839.25 111.104V105.247H1840.81V110.855C1840.81 112.922 1841.61 113.956 1843.19 113.956C1843.95 113.956 1844.58 113.675 1845.07 113.114C1845.57 112.546 1845.82 111.806 1845.82 110.894V105.247H1847.39V115.047ZM1852.17 113.631H1852.14V119.554H1850.57V105.247H1852.14V106.97H1852.17C1852.95 105.669 1854.07 105.018 1855.56 105.018C1856.82 105.018 1857.81 105.458 1858.52 106.338C1859.23 107.213 1859.58 108.386 1859.58 109.86C1859.58 111.5 1859.18 112.814 1858.38 113.803C1857.59 114.785 1856.5 115.277 1855.11 115.277C1853.84 115.277 1852.86 114.728 1852.17 113.631ZM1852.14 109.678V111.047C1852.14 111.857 1852.4 112.546 1852.92 113.114C1853.45 113.675 1854.12 113.956 1854.93 113.956C1855.88 113.956 1856.62 113.592 1857.16 112.865C1857.7 112.138 1857.97 111.127 1857.97 109.831C1857.97 108.74 1857.72 107.886 1857.22 107.267C1856.71 106.648 1856.03 106.338 1855.17 106.338C1854.26 106.338 1853.52 106.657 1852.97 107.295C1852.41 107.927 1852.14 108.721 1852.14 109.678ZM1867.04 114.492V112.597C1867.25 112.789 1867.51 112.961 1867.81 113.114C1868.12 113.267 1868.44 113.398 1868.77 113.506C1869.11 113.608 1869.44 113.688 1869.78 113.746C1870.12 113.803 1870.43 113.832 1870.72 113.832C1871.71 113.832 1872.45 113.65 1872.93 113.286C1873.42 112.916 1873.67 112.387 1873.67 111.698C1873.67 111.328 1873.58 111.005 1873.42 110.731C1873.26 110.457 1873.04 110.208 1872.75 109.985C1872.46 109.755 1872.12 109.538 1871.72 109.334C1871.34 109.123 1870.91 108.903 1870.46 108.673C1869.98 108.431 1869.54 108.185 1869.12 107.937C1868.71 107.688 1868.35 107.413 1868.04 107.114C1867.73 106.814 1867.49 106.476 1867.31 106.099C1867.14 105.716 1867.05 105.27 1867.05 104.759C1867.05 104.134 1867.19 103.592 1867.47 103.133C1867.74 102.667 1868.1 102.284 1868.55 101.984C1868.99 101.684 1869.5 101.461 1870.07 101.314C1870.64 101.168 1871.23 101.094 1871.82 101.094C1873.17 101.094 1874.16 101.257 1874.78 101.582V103.391C1873.97 102.83 1872.93 102.549 1871.66 102.549C1871.31 102.549 1870.96 102.587 1870.61 102.664C1870.25 102.734 1869.94 102.852 1869.67 103.018C1869.39 103.184 1869.17 103.397 1869 103.659C1868.83 103.92 1868.74 104.239 1868.74 104.616C1868.74 104.967 1868.8 105.27 1868.93 105.525C1869.06 105.78 1869.26 106.013 1869.51 106.224C1869.77 106.434 1870.08 106.638 1870.44 106.836C1870.81 107.034 1871.24 107.251 1871.72 107.487C1872.21 107.729 1872.67 107.984 1873.11 108.252C1873.55 108.52 1873.94 108.817 1874.27 109.142C1874.6 109.468 1874.86 109.828 1875.06 110.224C1875.25 110.619 1875.35 111.072 1875.35 111.583C1875.35 112.259 1875.22 112.833 1874.95 113.305C1874.69 113.771 1874.33 114.151 1873.88 114.444C1873.43 114.738 1872.91 114.948 1872.33 115.076C1871.74 115.21 1871.12 115.277 1870.47 115.277C1870.25 115.277 1869.99 115.258 1869.67 115.219C1869.35 115.187 1869.02 115.136 1868.69 115.066C1868.36 115.002 1868.04 114.923 1867.74 114.827C1867.45 114.725 1867.21 114.613 1867.04 114.492ZM1884.56 114.597C1883.81 115.05 1882.91 115.277 1881.88 115.277C1880.48 115.277 1879.35 114.824 1878.49 113.918C1877.64 113.005 1877.21 111.825 1877.21 110.377C1877.21 108.763 1877.67 107.468 1878.6 106.492C1879.52 105.509 1880.76 105.018 1882.3 105.018C1883.16 105.018 1883.92 105.177 1884.58 105.496V107.104C1883.85 106.594 1883.07 106.338 1882.24 106.338C1881.24 106.338 1880.42 106.699 1879.77 107.42C1879.14 108.134 1878.82 109.075 1878.82 110.243C1878.82 111.391 1879.12 112.297 1879.72 112.961C1880.32 113.624 1881.13 113.956 1882.15 113.956C1883 113.956 1883.81 113.672 1884.56 113.104V114.597ZM1895.07 115.047H1893.5V109.401C1893.5 107.359 1892.74 106.338 1891.22 106.338C1890.45 106.338 1889.81 106.635 1889.29 107.228C1888.76 107.815 1888.5 108.571 1888.5 109.496V115.047H1886.93V100.539H1888.5V106.874H1888.54C1889.29 105.637 1890.36 105.018 1891.75 105.018C1893.96 105.018 1895.07 106.348 1895.07 109.008V115.047ZM1902.13 115.277C1900.68 115.277 1899.52 114.821 1898.65 113.908C1897.79 112.989 1897.36 111.774 1897.36 110.262C1897.36 108.616 1897.81 107.331 1898.71 106.405C1899.61 105.48 1900.83 105.018 1902.36 105.018C1903.82 105.018 1904.96 105.468 1905.77 106.367C1906.6 107.267 1907.01 108.514 1907.01 110.109C1907.01 111.672 1906.57 112.926 1905.68 113.87C1904.8 114.808 1903.61 115.277 1902.13 115.277ZM1902.24 106.338C1901.23 106.338 1900.44 106.683 1899.85 107.372C1899.26 108.055 1898.97 108.999 1898.97 110.205C1898.97 111.366 1899.27 112.281 1899.86 112.951C1900.45 113.621 1901.25 113.956 1902.24 113.956C1903.26 113.956 1904.04 113.627 1904.58 112.97C1905.13 112.313 1905.4 111.379 1905.4 110.166C1905.4 108.941 1905.13 107.997 1904.58 107.334C1904.04 106.67 1903.26 106.338 1902.24 106.338ZM1913.61 115.277C1912.16 115.277 1911.01 114.821 1910.14 113.908C1909.28 112.989 1908.85 111.774 1908.85 110.262C1908.85 108.616 1909.3 107.331 1910.2 106.405C1911.1 105.48 1912.31 105.018 1913.84 105.018C1915.3 105.018 1916.44 105.468 1917.26 106.367C1918.08 107.267 1918.49 108.514 1918.49 110.109C1918.49 111.672 1918.05 112.926 1917.16 113.87C1916.28 114.808 1915.1 115.277 1913.61 115.277ZM1913.73 106.338C1912.72 106.338 1911.92 106.683 1911.33 107.372C1910.75 108.055 1910.45 108.999 1910.45 110.205C1910.45 111.366 1910.75 112.281 1911.34 112.951C1911.94 113.621 1912.73 113.956 1913.73 113.956C1914.74 113.956 1915.52 113.627 1916.06 112.97C1916.61 112.313 1916.88 111.379 1916.88 110.166C1916.88 108.941 1916.61 107.997 1916.06 107.334C1915.52 106.67 1914.74 106.338 1913.73 106.338ZM1922.57 115.047H1921V100.539H1922.57V115.047Z" fill="white"/>
<path d="M1734.55 47.756C1733.09 45.8627 1731.18 44.3592 1728.99 43.378C1726.76 42.4661 1724.37 42.018 1721.96 42.061C1719.65 42.08 1717.38 42.5985 1715.29 43.581C1713.18 44.5069 1711.34 45.9496 1709.93 47.776L1709.35 48.425C1709.15 48.6557 1708.99 48.9155 1708.88 49.195L1708.44 48.425L1707.94 47.776C1706.7 45.9777 1705.03 44.5207 1703.08 43.54C1701.17 42.5659 1699.06 42.059 1696.92 42.061C1694.81 42.0484 1692.72 42.4918 1690.79 43.361C1688.74 44.2108 1687.06 45.7818 1686.08 47.779V43.52H1677.06V89.527H1686.92V67.6C1686.88 65.3523 1686.99 63.1044 1687.24 60.871C1687.43 58.8329 1688.17 56.8844 1689.38 55.237C1690.05 54.4317 1690.9 53.7957 1691.87 53.3802C1692.83 52.9647 1693.88 52.7814 1694.93 52.845C1696.22 52.8489 1697.49 53.199 1698.6 53.859C1699.75 54.5141 1700.72 55.4568 1701.39 56.595C1702.12 57.847 1702.58 59.2325 1702.75 60.668C1702.9 61.511 1702.96 62.3667 1702.93 63.222V89.527H1712.83V66.3C1712.83 64.9767 1712.86 63.8013 1712.94 62.774C1712.99 61.9317 1713.08 61.0927 1713.23 60.261C1713.45 59.0649 1713.84 57.9056 1714.39 56.815C1715.08 55.5698 1716.09 54.5336 1717.32 53.815C1718.51 53.1594 1719.84 52.8241 1721.2 52.842C1722.45 52.8405 1723.68 53.1615 1724.77 53.774C1725.85 54.3566 1726.76 55.2171 1727.4 56.267C1728.11 57.5758 1728.54 59.0184 1728.67 60.503C1728.74 60.9041 1728.79 61.3106 1728.81 61.719C1728.83 62.179 1728.85 62.679 1728.85 63.219V89.527H1738.7V63.706C1738.76 60.8529 1738.53 58.0016 1738.02 55.194C1737.46 52.4785 1736.27 49.9311 1734.55 47.756V47.756Z" fill="white"/>
<path d="M1756.68 43.52H1746.82V89.527H1756.68V43.52Z" fill="white"/>
<path d="M1756.68 28.198H1746.82V38.21H1756.68V28.198Z" fill="white"/>
<path d="M1797.89 49.114C1797.79 48.8678 1797.64 48.646 1797.45 48.465L1796.83 47.776C1795.39 45.9924 1793.57 44.5521 1791.51 43.56C1789.51 42.5805 1787.33 42.0679 1785.11 42.0609C1782.89 42.054 1780.69 42.553 1778.7 43.52C1776.7 44.4748 1774.99 45.9437 1773.75 47.776V43.52H1764.65V89.527H1774.51V67.273C1774.51 66.0297 1774.53 64.9557 1774.58 64.051C1774.63 63.1463 1774.7 62.2463 1774.8 61.351C1774.95 59.7848 1775.4 58.2632 1776.14 56.872C1776.84 55.644 1777.87 54.6341 1779.11 53.954C1780.29 53.2448 1781.64 52.8602 1783.02 52.839C1784.33 52.8468 1785.61 53.2034 1786.74 53.872C1787.95 54.5821 1788.95 55.613 1789.62 56.852C1790.5 58.4609 1791.01 60.2484 1791.1 62.081C1791.25 62.8694 1791.31 63.6708 1791.29 64.472V89.527H1801.14V65.692C1801.2 62.8078 1801.05 59.9234 1800.71 57.059C1800.35 54.2375 1799.39 51.5267 1797.89 49.114V49.114Z" fill="white"/>
<path d="M1850.64 28.2V15.693H1840.78V28.522H1840.8V48.262C1839.31 46.2906 1837.36 44.7117 1835.12 43.662C1832.93 42.6111 1830.54 42.0644 1828.11 42.062C1825.22 42.09 1822.38 42.8277 1819.85 44.21C1817.18 45.5907 1814.83 47.5175 1812.96 49.865C1811.11 52.1937 1809.68 54.8353 1808.76 57.665C1808.28 59.0986 1807.93 60.5708 1807.71 62.065C1807.49 63.6023 1807.38 65.1538 1807.38 66.707C1807.39 69.714 1807.89 72.6995 1808.87 75.543C1809.79 78.335 1811.18 80.9522 1812.97 83.286C1814.75 85.6277 1817 87.5679 1819.58 88.98C1822.12 90.3466 1824.95 91.0508 1827.83 91.027C1830.58 91.0215 1833.29 90.3172 1835.69 88.98C1838.16 87.6614 1840.21 85.692 1841.64 83.286V89.528H1850.66V28.2H1850.64ZM1837.9 76.211C1836.86 77.4793 1835.55 78.4995 1834.06 79.1973C1832.58 79.8951 1830.95 80.253 1829.31 80.245C1827.66 80.2608 1826.03 79.898 1824.55 79.1846C1823.06 78.4712 1821.76 77.4261 1820.74 76.13C1818.42 73.3564 1817.19 69.8334 1817.28 66.219C1817.25 62.7655 1818.52 59.4276 1820.85 56.876C1821.85 55.6311 1823.12 54.6237 1824.56 53.9264C1825.99 53.2291 1827.57 52.859 1829.17 52.843C1830.81 52.8326 1832.45 53.1828 1833.94 53.8689C1835.44 54.555 1836.78 55.5605 1837.84 56.815C1840.24 59.4471 1841.54 62.9027 1841.45 66.463C1841.54 70.0434 1840.27 73.5239 1837.9 76.211V76.211Z" fill="white"/>
<path d="M1877.63 46.914C1878.21 46.9145 1878.77 46.7057 1879.21 46.326C1879.83 45.8325 1880.25 45.1379 1880.4 44.3641C1880.56 43.5903 1880.43 42.787 1880.05 42.095C1880.04 42.0645 1880.02 42.0348 1880.01 42.006L1865.02 15.669H1858.35L1875.25 45.414C1875.47 45.862 1875.81 46.2403 1876.23 46.5055C1876.65 46.7708 1877.13 46.9123 1877.63 46.914Z" fill="#FF0000"/>
<path d="M1893.21 33.762L1893.27 33.808C1893.72 34.1163 1894.26 34.2668 1894.81 34.236C1895.3 34.2624 1895.79 34.1451 1896.21 33.8985C1896.63 33.6519 1896.98 33.2868 1897.2 32.848L1906.3 16.788C1906.5 16.439 1906.66 16.0621 1906.75 15.669H1900.35L1892.43 29.455C1892.21 29.8191 1892.06 30.2253 1892.01 30.648C1891.95 31.0707 1891.98 31.5008 1892.1 31.911C1892.28 32.624 1892.67 33.2678 1893.21 33.762V33.762Z" fill="#FF0000"/>
<path d="M1890.96 40.25L1877.03 15.669H1870.46L1885.36 42.009L1858.35 89.526H1864.86L1890.97 43.62C1891.34 43.1348 1891.54 42.5418 1891.54 41.9326C1891.54 41.3235 1891.33 40.7321 1890.96 40.25V40.25Z" fill="#FF0000"/>
<path d="M1899.72 58.542C1899.17 58.5658 1898.65 58.7514 1898.21 59.075L1898.19 59.09C1897.5 59.5409 1897.02 60.2439 1896.84 61.048C1896.71 61.8845 1896.89 62.741 1897.34 63.455L1912.15 89.526H1918.78L1902.1 60.045C1901.88 59.5965 1901.55 59.2178 1901.12 58.952C1900.7 58.6863 1900.22 58.5442 1899.72 58.542V58.542Z" fill="#FF0000"/>
<path d="M1883.95 71.638C1883.5 71.3369 1882.96 71.1903 1882.42 71.22C1881.97 71.2333 1881.52 71.3543 1881.12 71.5729C1880.72 71.7916 1880.38 72.1017 1880.12 72.478C1880.1 72.5136 1880.07 72.551 1880.05 72.59L1870.82 88.79C1870.69 89.0222 1870.58 89.27 1870.5 89.528H1877.1L1884.8 76C1885.04 75.6616 1885.21 75.2774 1885.3 74.871C1885.39 74.4645 1885.39 74.0444 1885.31 73.6361C1885.23 73.2279 1885.07 72.8402 1884.84 72.4966C1884.6 72.1531 1884.3 71.8609 1883.95 71.638V71.638Z" fill="#FF0000"/>
<path d="M1891.88 63.447L1918.78 15.669H1912.45L1886.24 61.742C1886.22 61.7702 1886.21 61.7992 1886.19 61.829C1885.93 62.3432 1885.79 62.9141 1885.8 63.4921C1885.81 64.07 1885.96 64.6375 1886.23 65.145L1900.1 89.526H1906.57C1906.47 89.2259 1906.34 88.9367 1906.19 88.663L1891.88 63.447Z" fill="#FF0000"/>
<path d="M21.3211 47.2367H54.8871V52.2465H41.1247V91.235H35.1424V52.2465H21.3211V47.2367ZM89.3077 72.0207V74.673H65.8203V74.8498C65.6632 79.3489 66.5178 82.5807 68.3842 84.5454C70.2703 86.51 72.9225 87.4923 76.341 87.4923C78.0699 87.4923 79.8774 87.2173 81.7635 86.6672C83.6495 86.1171 85.6633 85.2821 87.8048 84.1623V89.5552C85.7419 90.4 83.7478 91.0287 81.8224 91.4413C79.9167 91.8735 78.0699 92.0896 76.2821 92.0896C71.1544 92.0896 67.1465 90.5572 64.2584 87.4923C61.3704 84.4078 59.9264 80.1642 59.9264 74.7614C59.9264 69.4962 61.3409 65.2918 64.17 62.1484C66.9991 59.0049 70.7713 57.4332 75.4864 57.4332C79.6908 57.4332 83.0012 58.8576 85.4177 61.7063C87.8539 64.5551 89.1505 67.9932 89.3077 72.0207ZM83.8853 70.4294C83.6495 68.1504 82.8145 66.1857 81.3804 64.5354C79.9658 62.8655 77.9226 62.0305 75.2507 62.0305C72.6377 62.0305 70.4864 62.8949 68.7968 64.6238C67.1072 66.3527 66.1838 68.2977 66.0266 70.4588L83.8853 70.4294ZM113.355 74.6435H111.557C108.394 74.6435 106.007 75.2035 104.396 76.3233C102.805 77.4235 102.009 79.0738 102.009 81.2742C102.009 83.2585 102.608 84.8008 103.807 85.901C105.005 87.0012 106.665 87.5513 108.787 87.5513C111.773 87.5513 114.121 86.5198 115.83 84.4569C117.54 82.3744 118.404 79.506 118.424 75.8518V74.6435H113.355ZM123.876 72.4038V91.235H118.424V86.343C117.265 88.3077 115.801 89.7615 114.033 90.7045C112.284 91.6279 110.153 92.0896 107.638 92.0896C104.278 92.0896 101.597 91.1466 99.5926 89.2605C97.5887 87.3548 96.5867 84.8106 96.5867 81.6279C96.5867 77.954 97.8146 75.1642 100.27 73.2585C102.746 71.3527 106.371 70.3999 111.145 70.3999H118.424V69.5453C118.404 66.9126 117.736 65.0069 116.42 63.8281C115.104 62.6297 113.001 62.0305 110.113 62.0305C108.267 62.0305 106.4 62.2957 104.514 62.8262C102.628 63.3566 100.791 64.1327 99.0033 65.1543V59.7318C101.007 58.9656 102.923 58.3959 104.75 58.0226C106.597 57.6297 108.384 57.4332 110.113 57.4332C112.844 57.4332 115.172 57.836 117.098 58.6415C119.043 59.447 120.614 60.6552 121.813 62.2662C122.559 63.2486 123.09 64.4667 123.404 65.9205C123.719 67.3547 123.876 69.5158 123.876 72.4038ZM148.954 61.5884C149.622 60.1739 150.467 59.1326 151.489 58.4646C152.53 57.777 153.778 57.4332 155.231 57.4332C157.884 57.4332 159.75 58.4646 160.831 60.5275C161.931 62.5708 162.481 66.4313 162.481 72.1091V91.235H157.53V72.3449C157.53 67.6887 157.265 64.8006 156.734 63.6808C156.224 62.5413 155.281 61.9715 153.905 61.9715C152.334 61.9715 151.253 62.5806 150.664 63.7987C150.094 64.9971 149.809 67.8458 149.809 72.3449V91.235H144.858V72.3449C144.858 67.6297 144.573 64.7221 144.004 63.6219C143.453 62.5216 142.451 61.9715 140.998 61.9715C139.563 61.9715 138.561 62.5806 137.992 63.7987C137.442 64.9971 137.167 67.8458 137.167 72.3449V91.235H132.245V58.2289H137.167V61.058C137.815 59.8792 138.62 58.9853 139.583 58.3762C140.565 57.7476 141.675 57.4332 142.913 57.4332C144.406 57.4332 145.644 57.777 146.626 58.4646C147.628 59.1523 148.404 60.1935 148.954 61.5884ZM178.041 58.2584H187.236V68.8969H178.041V58.2584ZM178.041 80.508H187.236V91.235H178.041V80.508Z" fill="#D73B6B"/>
<path d="M49.7593 133.236V139.277C47.9519 138.118 46.1346 137.244 44.3074 136.654C42.5 136.065 40.6728 135.77 38.8261 135.77C36.0166 135.77 33.7966 136.428 32.1659 137.745C30.5353 139.041 29.7199 140.8 29.7199 143.02C29.7199 144.965 30.2504 146.448 31.3113 147.47C32.3918 148.491 34.3958 149.346 37.3231 150.033L40.4469 150.741C44.5727 151.703 47.5786 153.216 49.4646 155.279C51.3507 157.342 52.2937 160.151 52.2937 163.707C52.2937 167.892 50.9971 171.085 48.4037 173.285C45.8104 175.485 42.0383 176.586 37.0874 176.586C35.0245 176.586 32.9518 176.36 30.8692 175.908C28.7867 175.476 26.6944 174.817 24.5922 173.933V167.597C26.8515 169.032 28.9832 170.083 30.9871 170.751C33.0107 171.419 35.0441 171.753 37.0874 171.753C40.0933 171.753 42.4312 171.085 44.1011 169.749C45.7711 168.393 46.6061 166.507 46.6061 164.09C46.6061 161.89 46.0265 160.21 44.8674 159.051C43.7279 157.892 41.7337 156.998 38.885 156.369L35.7023 155.633C31.6158 154.709 28.6492 153.314 26.8024 151.448C24.9557 149.582 24.0323 147.077 24.0323 143.933C24.0323 140.004 25.3486 136.86 27.9812 134.503C30.6335 132.126 34.1502 130.937 38.5314 130.937C40.221 130.937 41.999 131.133 43.8654 131.526C45.7318 131.9 47.6965 132.469 49.7593 133.236ZM87.569 174.051C86.1152 174.896 84.6122 175.525 83.0601 175.937C81.5277 176.37 79.956 176.586 78.345 176.586C73.2369 176.586 69.2388 175.053 66.3508 171.988C63.4824 168.924 62.0482 164.68 62.0482 159.257C62.0482 153.835 63.4824 149.591 66.3508 146.527C69.2388 143.462 73.2369 141.929 78.345 141.929C79.9363 141.929 81.4884 142.136 83.0012 142.548C84.514 142.961 86.0366 143.599 87.569 144.464V150.151C86.1348 148.874 84.6908 147.951 83.2369 147.381C81.8028 146.811 80.1721 146.527 78.345 146.527C74.9461 146.527 72.3331 147.627 70.506 149.827C68.6789 152.028 67.7653 155.171 67.7653 159.257C67.7653 163.324 68.6789 166.468 70.506 168.688C72.3528 170.888 74.9658 171.988 78.345 171.988C80.231 171.988 81.9206 171.703 83.4138 171.134C84.9069 170.544 86.292 169.641 87.569 168.423V174.051ZM110.821 146.527C108.07 146.527 105.988 147.597 104.573 149.739C103.158 151.88 102.451 155.053 102.451 159.257C102.451 163.442 103.158 166.615 104.573 168.776C105.988 170.918 108.07 171.988 110.821 171.988C113.591 171.988 115.683 170.918 117.098 168.776C118.512 166.615 119.219 163.442 119.219 159.257C119.219 155.053 118.512 151.88 117.098 149.739C115.683 147.597 113.591 146.527 110.821 146.527ZM110.821 141.929C115.398 141.929 118.895 143.413 121.312 146.379C123.748 149.346 124.966 153.639 124.966 159.257C124.966 164.896 123.758 169.199 121.341 172.165C118.925 175.112 115.418 176.586 110.821 176.586C106.243 176.586 102.746 175.112 100.329 172.165C97.9129 169.199 96.7046 164.896 96.7046 159.257C96.7046 153.639 97.9129 149.346 100.329 146.379C102.746 143.413 106.243 141.929 110.821 141.929ZM163.07 149.532C161.911 148.629 160.733 147.971 159.534 147.558C158.336 147.145 157.019 146.939 155.585 146.939C152.206 146.939 149.622 148 147.835 150.122C146.047 152.244 145.153 155.308 145.153 159.316V175.731H139.701V142.725H145.153V149.179C146.057 146.841 147.442 145.053 149.308 143.815C151.194 142.558 153.424 141.929 155.998 141.929C157.334 141.929 158.581 142.096 159.74 142.43C160.899 142.764 162.01 143.285 163.07 143.992V149.532ZM198.405 156.517V159.169H174.917V159.346C174.76 163.845 175.615 167.077 177.481 169.041C179.367 171.006 182.019 171.988 185.438 171.988C187.167 171.988 188.974 171.713 190.86 171.163C192.746 170.613 194.76 169.778 196.902 168.658V174.051C194.839 174.896 192.845 175.525 190.919 175.937C189.014 176.37 187.167 176.586 185.379 176.586C180.251 176.586 176.243 175.053 173.355 171.988C170.467 168.904 169.023 164.66 169.023 159.257C169.023 153.992 170.438 149.788 173.267 146.644C176.096 143.501 179.868 141.929 184.583 141.929C188.788 141.929 192.098 143.354 194.515 146.202C196.951 149.051 198.247 152.489 198.405 156.517ZM192.982 154.925C192.746 152.646 191.911 150.682 190.477 149.031C189.063 147.361 187.02 146.527 184.348 146.527C181.735 146.527 179.583 147.391 177.894 149.12C176.204 150.849 175.281 152.794 175.124 154.955L192.982 154.925ZM214.407 142.754H223.601V153.393H214.407V142.754ZM214.407 165.004H223.601V175.731H214.407V165.004Z" fill="#D73B6B"/>
<path opacity="0.75" d="M547.945 36.5H230.819C218.393 36.5 208.319 46.5736 208.319 59V68.319C208.319 80.7454 218.393 90.819 230.819 90.819H547.945C560.371 90.819 570.445 80.7454 570.445 68.319V59C570.445 46.5736 560.371 36.5 547.945 36.5Z" fill="white" stroke="black" stroke-width="10" stroke-miterlimit="10"/>
<path opacity="0.75" d="M574.5 122.807H257.374C244.948 122.807 234.874 132.881 234.874 145.307V154.626C234.874 167.052 244.948 177.126 257.374 177.126H574.5C586.926 177.126 597 167.052 597 154.626V145.307C597 132.881 586.926 122.807 574.5 122.807Z" fill="white" stroke="black" stroke-width="10" stroke-miterlimit="10"/>
<path d="M1876 238H1676V838H1876V238Z" fill="black"/>
<path d="M248 235H48V835H248V235Z" fill="black"/>
<path d="M999 908H699V1008H999V908Z" fill="black"/>
<path d="M1404 908H1104V1008H1404V908Z" fill="black"/>
<path d="M1800 908H1500V1008H1800V908Z" fill="black"/>
<path d="M597.5 908H297.5V1008H597.5V908Z" fill="black"/>
<path d="M148 1036C192.183 1036 228 1000.18 228 956C228 911.817 192.183 876 148 876C103.817 876 68 911.817 68 956C68 1000.18 103.817 1036 148 1036Z" fill="#FF0000" stroke="black" stroke-miterlimit="10"/>
<path d="M90.1397 944.55H95.0958V958.515H108.597V944.55H113.553V981H108.597V962.665H95.0958V981H90.1397V944.55ZM121.829 944.55H142.068V948.7H134.427V976.85H142.068V981H121.829V976.85H129.471V948.7H121.829V944.55ZM147.513 944.672H154.251L168.509 974.579V944.672H173.758V981H167.02L152.762 951.093V981H147.513V944.672ZM178.323 944.55H206.131V948.7H194.73V981H189.773V948.7H178.323V944.55Z" fill="black"/>
<path d="M1809.86 239.802H1742.14C1731.57 239.802 1723 248.37 1723 258.94V271.769C1723 282.339 1731.57 290.907 1742.14 290.907H1809.86C1820.43 290.907 1829 282.339 1829 271.769V258.94C1829 248.37 1820.43 239.802 1809.86 239.802Z" fill="#9579E3"/>
<path d="M1722.5 257.659H1742.49V260.644H1734.29V283.873H1730.73V260.644H1722.5V257.659ZM1746.87 257.659H1761.42V260.644H1755.92V280.888H1761.42V283.873H1746.87V280.888H1752.36V260.644H1746.87V257.659ZM1765.63 257.747H1770.37L1774.9 271.056L1779.47 257.747H1784.23V283.873H1780.94V260.785L1776.27 274.55H1773.59L1768.9 260.785V283.873H1765.63V257.747ZM1790.13 257.659H1805.68V260.644H1793.67V267.702H1805.16V270.687H1793.67V280.888H1806.02V283.873H1790.13V257.659ZM1821.68 271.495C1822.59 271.729 1823.37 272.174 1824.01 272.829C1824.66 273.473 1825.46 274.766 1826.42 276.709L1829.98 283.873H1826.17L1823.05 277.254C1822.15 275.369 1821.33 274.158 1820.61 273.619C1819.89 273.069 1818.96 272.794 1817.8 272.794H1814.41V283.873H1810.85V257.659H1818.15C1821.03 257.659 1823.24 258.309 1824.77 259.608C1826.3 260.908 1827.07 262.786 1827.07 265.244C1827.07 266.977 1826.59 268.393 1825.65 269.493C1824.71 270.582 1823.39 271.249 1821.68 271.495ZM1814.41 260.574V269.88H1818.29C1819.99 269.88 1821.25 269.499 1822.08 268.738C1822.91 267.977 1823.33 266.813 1823.33 265.244C1823.33 263.734 1822.88 262.581 1821.99 261.786C1821.12 260.978 1819.83 260.574 1818.15 260.574H1814.41Z" fill="black"/>
<path d="M1600 238H300V838H1600V238Z" fill="#010101"/>
<path d="M789.983 331.238C789.801 331.238 789.54 331.251 789.202 331.277C788.863 331.303 788.59 331.316 788.381 331.316C781.871 331.316 777.001 328.816 773.772 323.816C770.569 318.816 768.967 311.238 768.967 301.081C768.967 290.899 770.569 283.308 773.772 278.308C777.001 273.308 781.897 270.808 788.459 270.808C795.048 270.808 799.944 273.308 803.147 278.308C806.376 283.308 807.991 290.899 807.991 301.081C807.991 308.738 807.092 314.91 805.295 319.597C803.525 324.259 800.829 327.527 797.209 329.402L805.022 336.824L799.124 340.73L789.983 331.238ZM799.749 301.081C799.749 292.514 798.863 286.394 797.092 282.722C795.347 279.05 792.47 277.214 788.459 277.214C784.475 277.214 781.597 279.05 779.827 282.722C778.082 286.394 777.209 292.514 777.209 301.081C777.209 309.623 778.082 315.73 779.827 319.402C781.597 323.074 784.475 324.91 788.459 324.91C792.47 324.91 795.347 323.087 797.092 319.441C798.863 315.769 799.749 309.649 799.749 301.081ZM818.342 307.8V271.863H826.272V311.394C826.272 314.232 826.35 316.264 826.506 317.488C826.663 318.686 826.936 319.61 827.327 320.261C828.16 321.798 829.358 322.956 830.92 323.738C832.509 324.519 834.423 324.91 836.663 324.91C838.928 324.91 840.842 324.519 842.405 323.738C843.967 322.956 845.178 321.798 846.038 320.261C846.428 319.61 846.702 318.686 846.858 317.488C847.014 316.29 847.092 314.285 847.092 311.472V271.863H854.983V307.8C854.983 313.764 854.605 318.009 853.85 320.535C853.121 323.035 851.845 325.105 850.022 326.745C848.303 328.282 846.337 329.428 844.124 330.183C841.91 330.938 839.423 331.316 836.663 331.316C833.928 331.316 831.454 330.938 829.241 330.183C827.027 329.428 825.048 328.282 823.303 326.745C821.506 325.131 820.23 323.048 819.475 320.495C818.72 317.917 818.342 313.686 818.342 307.8ZM868.499 271.863H903.108V278.503H876.389V294.206H901.936V300.847H876.389V323.542H903.85V330.183H868.499V271.863ZM948.538 273.855V281.863C946.142 280.326 943.733 279.167 941.311 278.386C938.915 277.605 936.493 277.214 934.045 277.214C930.321 277.214 927.379 278.087 925.217 279.831C923.056 281.55 921.975 283.881 921.975 286.824C921.975 289.402 922.678 291.368 924.084 292.722C925.517 294.076 928.173 295.209 932.053 296.12L936.194 297.058C941.663 298.334 945.647 300.339 948.147 303.074C950.647 305.808 951.897 309.532 951.897 314.245C951.897 319.792 950.178 324.024 946.741 326.941C943.303 329.857 938.303 331.316 931.741 331.316C929.006 331.316 926.259 331.016 923.499 330.417C920.738 329.844 917.965 328.972 915.178 327.8V319.402C918.173 321.303 920.999 322.696 923.655 323.581C926.337 324.467 929.032 324.91 931.741 324.91C935.725 324.91 938.824 324.024 941.038 322.253C943.251 320.456 944.358 317.956 944.358 314.753C944.358 311.837 943.59 309.61 942.053 308.074C940.543 306.537 937.9 305.352 934.124 304.519L929.905 303.542C924.488 302.318 920.556 300.469 918.108 297.995C915.66 295.522 914.436 292.201 914.436 288.035C914.436 282.826 916.181 278.66 919.67 275.535C923.186 272.384 927.847 270.808 933.655 270.808C935.894 270.808 938.251 271.068 940.725 271.589C943.199 272.084 945.803 272.839 948.538 273.855ZM959.045 271.863H1003.54V278.503H985.295V330.183H977.366V278.503H959.045V271.863ZM1013.26 271.863H1045.65V278.503H1033.42V323.542H1045.65V330.183H1013.26V323.542H1025.49V278.503H1013.26V271.863ZM1088.97 301.081C1088.97 292.514 1088.08 286.394 1086.31 282.722C1084.57 279.05 1081.69 277.214 1077.68 277.214C1073.69 277.214 1070.82 279.05 1069.05 282.722C1067.3 286.394 1066.43 292.514 1066.43 301.081C1066.43 309.623 1067.3 315.73 1069.05 319.402C1070.82 323.074 1073.69 324.91 1077.68 324.91C1081.69 324.91 1084.57 323.087 1086.31 319.441C1088.08 315.769 1088.97 309.649 1088.97 301.081ZM1097.21 301.081C1097.21 311.238 1095.59 318.816 1092.37 323.816C1089.16 328.816 1084.27 331.316 1077.68 331.316C1071.09 331.316 1066.19 328.829 1062.99 323.855C1059.79 318.881 1058.19 311.29 1058.19 301.081C1058.19 290.899 1059.79 283.308 1062.99 278.308C1066.22 273.308 1071.12 270.808 1077.68 270.808C1084.27 270.808 1089.16 273.308 1092.37 278.308C1095.59 283.308 1097.21 290.899 1097.21 301.081ZM1102.56 272.058H1113.34L1136.15 319.91V272.058H1144.55V330.183H1133.77L1110.96 282.331V330.183H1102.56V272.058Z" fill="#C41A1A"/>
<path d="M1056 730H866C841.147 730 821 750.147 821 775C821 799.853 841.147 820 866 820H1056C1080.85 820 1101 799.853 1101 775C1101 750.147 1080.85 730 1056 730Z" fill="#B1F0E6"/>
<path d="M894.953 762.539V767.544C893.456 766.584 891.95 765.859 890.436 765.371C888.939 764.883 887.425 764.639 885.895 764.639C883.568 764.639 881.729 765.184 880.378 766.274C879.027 767.349 878.351 768.805 878.351 770.644C878.351 772.256 878.791 773.485 879.67 774.331C880.565 775.177 882.225 775.885 884.65 776.455L887.238 777.041C890.656 777.838 893.146 779.092 894.709 780.801C896.271 782.51 897.053 784.837 897.053 787.783C897.053 791.25 895.978 793.895 893.83 795.718C891.682 797.541 888.557 798.452 884.455 798.452C882.746 798.452 881.029 798.265 879.304 797.891C877.578 797.532 875.845 796.987 874.103 796.255V791.006C875.975 792.194 877.741 793.065 879.401 793.618C881.078 794.171 882.762 794.448 884.455 794.448C886.945 794.448 888.882 793.895 890.266 792.788C891.649 791.665 892.341 790.102 892.341 788.1C892.341 786.278 891.861 784.886 890.9 783.926C889.956 782.965 888.304 782.225 885.944 781.704L883.307 781.094C879.922 780.329 877.464 779.173 875.934 777.627C874.405 776.081 873.64 774.005 873.64 771.401C873.64 768.146 874.73 765.542 876.911 763.589C879.108 761.619 882.022 760.635 885.651 760.635C887.051 760.635 888.524 760.797 890.07 761.123C891.616 761.432 893.244 761.904 894.953 762.539ZM903.962 783.755V761.294H908.918V786.001C908.918 787.775 908.967 789.044 909.064 789.809C909.162 790.558 909.333 791.136 909.577 791.543C910.098 792.503 910.847 793.227 911.823 793.716C912.816 794.204 914.012 794.448 915.412 794.448C916.828 794.448 918.024 794.204 919.001 793.716C919.977 793.227 920.734 792.503 921.271 791.543C921.516 791.136 921.686 790.558 921.784 789.809C921.882 789.061 921.931 787.807 921.931 786.05V761.294H926.862V783.755C926.862 787.482 926.626 790.135 926.154 791.714C925.698 793.276 924.901 794.57 923.762 795.596C922.687 796.556 921.459 797.272 920.075 797.744C918.692 798.216 917.137 798.452 915.412 798.452C913.703 798.452 912.157 798.216 910.773 797.744C909.39 797.272 908.153 796.556 907.062 795.596C905.939 794.586 905.142 793.284 904.67 791.689C904.198 790.078 903.962 787.433 903.962 783.755ZM939.509 779.36V793.691H945.344C948.208 793.691 950.251 793.195 951.472 792.202C952.692 791.193 953.303 789.541 953.303 787.246C953.303 784.219 952.66 782.152 951.374 781.045C950.088 779.922 948.078 779.36 945.344 779.36H939.509ZM939.509 765.347V775.356H945.246C947.622 775.356 949.339 774.901 950.397 773.989C951.472 773.078 952.009 771.93 952.009 770.547C952.009 768.708 951.48 767.381 950.422 766.567C949.38 765.753 947.655 765.347 945.246 765.347H939.509ZM934.553 761.294H945.344C949.071 761.294 951.944 762.099 953.962 763.711C955.98 765.322 956.989 767.601 956.989 770.547C956.989 772.126 956.452 773.558 955.378 774.844C954.32 776.129 952.725 776.935 950.593 777.261C952.985 777.619 954.857 778.644 956.208 780.337C957.575 782.013 958.259 784.479 958.259 787.734C958.259 791.038 957.176 793.537 955.012 795.229C952.847 796.906 949.624 797.744 945.344 797.744H934.553V761.294ZM961.506 761.416H968.098L974.396 779.922L980.744 761.416H987.36V797.744H982.795V765.64L976.301 784.78H972.565L966.047 765.64V797.744H961.506V761.416ZM995.661 761.294H1015.9V765.444H1008.26V793.594H1015.9V797.744H995.661V793.594H1003.3V765.444H995.661V761.294ZM1022.03 761.294H1049.84V765.444H1038.43V797.744H1033.48V765.444H1022.03V761.294Z" fill="#81A11D"/>
<path d="M698.555 398.689H692.676L663.419 373.293V398.689H658.702V352.034H664.136L693.838 377.703V352.034H698.555V398.689ZM718.516 398.689H705.46V352.034H718.516V366.902C720.088 365.147 721.558 363.905 722.925 363.176C724.452 362.379 726.309 361.98 728.497 361.98C731.049 361.98 733.259 362.47 735.128 363.45C737.771 364.84 739.309 367.061 739.742 370.115C739.856 370.935 739.913 372.576 739.913 375.037V398.689H726.856V374.832C726.856 372.211 726.765 370.502 726.583 369.705C726.127 367.654 725.044 366.628 723.336 366.628C721.034 366.628 719.576 367.813 718.961 370.183C718.664 371.3 718.516 372.974 718.516 375.208V398.689ZM778.16 398.689H765.547L765.958 394.211C763.77 396.034 761.993 397.288 760.626 397.971C758.666 398.974 756.57 399.475 754.336 399.475C751.374 399.475 749.084 398.586 747.466 396.809C745.894 395.1 745.108 392.742 745.108 389.734C745.108 385.268 746.954 382.112 750.645 380.266C752.696 379.241 756.285 378.307 761.412 377.463L765.342 376.814V373.943C765.365 370.571 765.08 368.394 764.488 367.415C763.781 366.252 762.414 365.671 760.386 365.671C757.059 365.671 755.396 366.731 755.396 368.85C755.396 370.172 756.228 371.345 757.891 372.371C755.909 374.102 753.436 375.595 750.474 376.848C747.854 374.889 746.544 372.838 746.544 370.696C746.544 368.873 747.398 367.221 749.107 365.74C752.001 363.21 756.308 361.946 762.027 361.946C769.478 361.946 774.286 363.609 776.451 366.936C777.59 368.691 778.16 371.983 778.16 376.814V398.689ZM765.342 380.129C762.904 380.266 761.138 380.881 760.044 381.975C758.951 383.069 758.404 384.823 758.404 387.239C758.404 391.112 759.646 393.049 762.129 393.049C764.271 393.049 765.342 391.306 765.342 387.82V380.129ZM774.605 360.442H763.668L759.874 355.725L756.08 360.442H750.543L757.652 352.034H767.598L774.605 360.442ZM767.325 413.181H757.994V403.508H767.325V413.181ZM785.645 409.421V362.766H798.702V365.125C800.57 363.005 802.792 361.946 805.367 361.946C807.896 361.946 810.414 362.709 812.92 364.236C818.23 367.472 820.884 373.02 820.884 380.881C820.884 386.829 819.244 391.511 815.962 394.929C813.069 397.96 809.616 399.475 805.606 399.475C802.986 399.475 800.684 398.245 798.702 395.784V409.421H785.645ZM798.702 371.072V388.025C798.702 392.559 799.818 394.827 802.051 394.827C803.601 394.827 804.752 393.835 805.503 391.853C806.438 389.369 806.905 385.427 806.905 380.027C806.905 370.776 805.469 366.15 802.598 366.15C801.413 366.15 800.445 366.697 799.693 367.791C799.032 368.748 798.702 369.841 798.702 371.072ZM876.768 394.793C874.148 397.914 869.556 399.475 862.994 399.475C856.75 399.475 851.794 397.971 848.126 394.963C844.161 391.728 842.178 387.057 842.178 380.95C842.178 375.048 844.161 370.365 848.126 366.902C851.908 363.598 856.796 361.946 862.789 361.946C866.412 361.946 869.431 362.504 871.846 363.621C875.059 365.125 876.666 367.483 876.666 370.696C876.666 372.929 875.515 375.139 873.213 377.327C871.641 377.304 870.16 376.837 868.77 375.925C867.38 374.991 866.332 373.806 865.626 372.371C867.221 371.095 868.018 369.932 868.018 368.884C868.018 367.061 866.731 366.15 864.156 366.15C861.649 366.15 859.769 367.312 858.516 369.636C857.582 371.368 857.115 374.535 857.115 379.138C857.115 385.313 857.787 389.609 859.131 392.024C860.248 394.029 862.014 395.032 864.429 395.032C865.865 395.032 867.152 394.644 868.292 393.87C869.568 392.981 870.206 391.853 870.206 390.486C870.206 390.03 870.126 389.438 869.966 388.709C873.817 389.119 876.085 391.147 876.768 394.793ZM912.144 398.689H899.532L899.942 394.211C897.754 396.034 895.977 397.288 894.61 397.971C892.65 398.974 890.554 399.475 888.321 399.475C885.359 399.475 883.069 398.586 881.451 396.809C879.878 395.1 879.092 392.742 879.092 389.734C879.092 385.268 880.938 382.112 884.629 380.266C886.68 379.241 890.269 378.307 895.396 377.463L899.327 376.814V373.943C899.35 370.571 899.065 368.394 898.472 367.415C897.766 366.252 896.399 365.671 894.371 365.671C891.044 365.671 889.38 366.731 889.38 368.85C889.38 370.172 890.212 371.345 891.876 372.371C889.893 374.102 887.421 375.595 884.459 376.848C881.838 374.889 880.528 372.838 880.528 370.696C880.528 368.873 881.382 367.221 883.091 365.74C885.985 363.21 890.292 361.946 896.011 361.946C903.462 361.946 908.27 363.609 910.435 366.936C911.574 368.691 912.144 371.983 912.144 376.814V398.689ZM899.327 380.129C896.889 380.266 895.123 380.881 894.029 381.975C892.935 383.069 892.388 384.823 892.388 387.239C892.388 391.112 893.63 393.049 896.114 393.049C898.256 393.049 899.327 391.306 899.327 387.82V380.129ZM908.589 360.442H897.652L893.858 355.725L890.064 360.442H884.527L891.636 352.034H901.583L908.589 360.442ZM940.616 362.766H953.672V398.689H940.616V394.553C937.54 397.835 934.076 399.475 930.225 399.475C925.372 399.475 922.079 397.857 920.347 394.622C919.572 393.186 919.185 390.452 919.185 386.418V362.766H932.242V386.624C932.242 389.29 932.31 390.964 932.447 391.648C932.834 393.767 933.825 394.827 935.42 394.827C937.859 394.827 939.419 393.642 940.103 391.272C940.445 390.064 940.616 388.39 940.616 386.248V362.766ZM991.68 398.689H978.624V352.034H991.68V366.902C993.253 365.147 994.722 363.905 996.089 363.176C997.616 362.379 999.473 361.98 1001.66 361.98C1004.21 361.98 1006.42 362.47 1008.29 363.45C1010.93 364.84 1012.47 367.061 1012.91 370.115C1013.02 370.935 1013.08 372.576 1013.08 375.037V398.689H1000.02V374.832C1000.02 372.211 999.929 370.502 999.747 369.705C999.291 367.654 998.209 366.628 996.5 366.628C994.198 366.628 992.74 367.813 992.125 370.183C991.828 371.3 991.68 372.974 991.68 375.208V398.689ZM1037.17 361.946C1042.53 361.923 1046.98 363.803 1050.54 367.585C1054.02 371.277 1055.77 375.811 1055.77 381.189C1055.77 386.681 1053.73 391.215 1049.65 394.793C1046.09 397.914 1041.94 399.475 1037.17 399.475C1031.57 399.475 1026.89 397.39 1023.13 393.22C1019.89 389.62 1018.27 385.37 1018.27 380.471C1018.27 375.048 1020.28 370.502 1024.29 366.834C1027.84 363.598 1032.14 361.969 1037.17 361.946ZM1037 365.671C1033.99 365.649 1032.49 370.627 1032.49 380.608C1032.49 390.702 1033.99 395.75 1037 395.75C1040.01 395.75 1041.51 390.737 1041.51 380.71C1041.51 370.707 1040.01 365.694 1037 365.671ZM1037.75 360.476H1034.61V356.169C1035.02 356.329 1035.5 356.409 1036.05 356.409C1037.44 356.409 1038.13 355.167 1038.13 352.683C1038.13 350.268 1037.52 349.06 1036.28 349.06C1035.12 349.06 1034.54 349.732 1034.54 351.077C1034.54 351.624 1034.72 352.182 1035.09 352.751C1034.34 353.276 1033.33 353.697 1032.08 354.016C1031.85 353.446 1031.74 352.808 1031.74 352.102C1031.74 350.553 1032.31 349.345 1033.45 348.479C1034.47 347.659 1035.78 347.249 1037.38 347.249C1039.91 347.249 1041.72 348.126 1042.81 349.88C1043.36 350.724 1043.63 351.703 1043.63 352.82C1043.63 354.438 1043.08 355.748 1041.96 356.751C1040.77 357.821 1039.37 358.357 1037.75 358.357V360.476ZM1074.63 398.689H1061.34V362.766H1074.63V398.689ZM1068.11 348.001C1070.04 348.001 1071.75 348.559 1073.23 349.675C1074.83 350.906 1075.63 352.467 1075.63 354.358C1075.63 356.272 1074.81 357.833 1073.16 359.041C1071.68 360.157 1069.95 360.715 1067.97 360.715C1065.99 360.715 1064.26 360.157 1062.77 359.041C1061.16 357.833 1060.35 356.272 1060.35 354.358C1060.35 352.421 1061.18 350.849 1062.84 349.641C1064.35 348.547 1066.1 348.001 1068.11 348.001ZM1116.5 365.671C1113.5 365.649 1111.99 370.627 1111.99 380.608C1111.99 390.702 1113.5 395.75 1116.5 395.75C1119.51 395.75 1121.02 390.737 1121.02 380.71C1121.02 370.707 1119.51 365.694 1116.5 365.671ZM1133.56 372.712C1134.93 370.867 1135.66 369.01 1135.75 367.141H1130.45V357.468H1139.75V365.706C1139.75 368.508 1139.1 370.969 1137.8 373.088C1137 374.387 1136.01 375.595 1134.82 376.711C1135.12 378.124 1135.27 379.617 1135.27 381.189C1135.27 386.681 1133.23 391.215 1129.15 394.793C1125.6 397.914 1121.44 399.475 1116.68 399.475C1111.07 399.475 1106.39 397.39 1102.63 393.22C1099.39 389.62 1097.77 385.37 1097.77 380.471C1097.77 375.048 1099.78 370.502 1103.79 366.834C1107.34 363.598 1111.64 361.969 1116.68 361.946C1121.8 361.923 1126.22 363.78 1129.94 367.517C1131.49 369.067 1132.69 370.798 1133.56 372.712ZM1117.26 360.476H1114.11V356.169C1114.52 356.329 1115 356.409 1115.55 356.409C1116.94 356.409 1117.63 355.167 1117.63 352.683C1117.63 350.268 1117.02 349.06 1115.79 349.06C1114.62 349.06 1114.04 349.732 1114.04 351.077C1114.04 351.624 1114.23 352.182 1114.59 352.751C1113.84 353.276 1112.84 353.697 1111.58 354.016C1111.35 353.446 1111.24 352.808 1111.24 352.102C1111.24 350.553 1111.81 349.345 1112.95 348.479C1113.98 347.659 1115.29 347.249 1116.88 347.249C1119.41 347.249 1121.22 348.126 1122.32 349.88C1122.86 350.724 1123.14 351.703 1123.14 352.82C1123.14 354.438 1122.58 355.748 1121.46 356.751C1120.28 357.821 1118.87 358.357 1117.26 358.357V360.476ZM1178.68 352.034H1191.73V354.836H1195.49V359.519H1191.73V398.689H1178.68V396.331C1176.81 398.45 1174.6 399.509 1172.05 399.509C1169.49 399.509 1166.97 398.746 1164.46 397.219C1159.15 393.984 1156.49 388.424 1156.49 380.54C1156.49 374.592 1158.14 369.91 1161.42 366.492C1164.31 363.484 1167.76 361.98 1171.77 361.98C1174.39 361.98 1176.69 363.21 1178.68 365.671V359.519H1169.48V354.836H1178.68V352.034ZM1178.68 390.383V373.43C1178.68 368.896 1177.56 366.628 1175.33 366.628C1173.78 366.628 1172.63 367.62 1171.88 369.602C1170.94 372.086 1170.47 376.028 1170.47 381.428C1170.47 390.68 1171.91 395.305 1174.78 395.305C1175.97 395.305 1176.93 394.758 1177.69 393.665C1178.35 392.708 1178.68 391.614 1178.68 390.383ZM1230.43 398.689H1217.81L1218.22 394.211C1216.04 396.034 1214.26 397.288 1212.89 397.971C1210.93 398.974 1208.84 399.475 1206.6 399.475C1203.64 399.475 1201.35 398.586 1199.73 396.809C1198.16 395.1 1197.37 392.742 1197.37 389.734C1197.37 385.268 1199.22 382.112 1202.91 380.266C1204.96 379.241 1208.55 378.307 1213.68 377.463L1217.61 376.814V373.943C1217.63 370.571 1217.35 368.394 1216.75 367.415C1216.05 366.252 1214.68 365.671 1212.65 365.671C1209.33 365.671 1207.66 366.731 1207.66 368.85C1207.66 370.172 1208.49 371.345 1210.16 372.371C1208.17 374.102 1205.7 375.595 1202.74 376.848C1200.12 374.889 1198.81 372.838 1198.81 370.696C1198.81 368.873 1199.66 367.221 1201.37 365.74C1204.27 363.21 1208.57 361.946 1214.29 361.946C1221.74 361.946 1226.55 363.609 1228.72 366.936C1229.86 368.691 1230.43 371.983 1230.43 376.814V398.689ZM1217.61 380.129C1215.17 380.266 1213.4 380.881 1212.31 381.975C1211.22 383.069 1210.67 384.823 1210.67 387.239C1210.67 391.112 1211.91 393.049 1214.4 393.049C1216.54 393.049 1217.61 391.306 1217.61 387.82V380.129ZM1226.87 360.442H1215.93L1212.14 355.725L1208.35 360.442H1202.81L1209.92 352.034H1219.86L1226.87 360.442ZM1263 362.766H1267.95L1252.51 398.416C1250.64 402.722 1249.1 405.571 1247.89 406.96C1246 409.148 1243.63 410.242 1240.78 410.242C1238.73 410.242 1237 409.456 1235.59 407.883L1238.22 402.38C1239.11 403.884 1240.33 404.636 1241.88 404.636C1243.95 404.636 1245.51 403.531 1246.56 401.321L1248.64 396.877L1233.95 362.766H1248.34L1255.65 380.129L1263 362.766Z" fill="#149414"/>
<path opacity="0.57" d="M1542 424H363V721H1542V424Z" fill="white"/>
<path d="M421.836 463.347C419.639 465.821 415.798 467.058 410.312 467.058C404.665 467.058 400.091 465.675 396.592 462.908C392.865 459.962 391.001 455.632 391.001 449.919C391.001 444.434 392.865 440.089 396.592 436.882C400.124 433.839 404.673 432.317 410.239 432.317C414.129 432.317 417.124 432.943 419.224 434.197C421.095 435.32 422.031 436.833 422.031 438.738C422.031 440.935 420.884 442.034 418.589 442.034C416.717 442.034 415.146 441.366 413.877 440.032C414.642 439.316 415.024 438.664 415.024 438.079C415.024 436.5 413.796 435.71 411.338 435.71C408.734 435.71 406.691 436.825 405.21 439.055C404.136 440.683 403.599 443.808 403.599 448.43C403.599 452.434 403.883 455.429 404.453 457.414C405.234 460.165 406.764 462.004 409.043 462.932C410.231 463.42 411.493 463.664 412.827 463.664C415.806 463.664 417.295 462.452 417.295 460.027C417.295 459.848 417.279 459.587 417.246 459.246C419.85 459.506 421.38 460.873 421.836 463.347ZM447.178 466.35H438.169L438.462 463.152C436.899 464.454 435.63 465.349 434.653 465.837C433.254 466.553 431.756 466.912 430.161 466.912C428.045 466.912 426.41 466.277 425.254 465.007C424.131 463.787 423.569 462.102 423.569 459.954C423.569 456.763 424.888 454.509 427.524 453.191C428.989 452.458 431.553 451.791 435.215 451.189L438.022 450.725V448.674C438.039 446.265 437.835 444.711 437.412 444.011C436.908 443.181 435.931 442.766 434.482 442.766C432.106 442.766 430.918 443.523 430.918 445.037C430.918 445.981 431.512 446.819 432.7 447.551C431.284 448.788 429.518 449.854 427.402 450.749C425.531 449.35 424.595 447.885 424.595 446.355C424.595 445.053 425.205 443.873 426.426 442.815C428.493 441.008 431.569 440.105 435.654 440.105C440.977 440.105 444.411 441.293 445.957 443.669C446.771 444.923 447.178 447.274 447.178 450.725V466.35ZM438.022 453.093C436.281 453.191 435.02 453.63 434.238 454.412C433.457 455.193 433.066 456.446 433.066 458.171C433.066 460.938 433.953 462.322 435.728 462.322C437.257 462.322 438.022 461.077 438.022 458.586V453.093ZM444.639 439.031H436.826L434.116 435.662L431.406 439.031H427.451L432.529 433.025H439.634L444.639 439.031ZM467.515 440.691H476.841V466.35H467.515V463.396C465.317 465.74 462.843 466.912 460.093 466.912C456.626 466.912 454.274 465.756 453.037 463.445C452.484 462.419 452.207 460.466 452.207 457.585V440.691H461.533V457.732C461.533 459.636 461.582 460.832 461.68 461.321C461.956 462.834 462.664 463.591 463.804 463.591C465.545 463.591 466.66 462.745 467.148 461.052C467.393 460.19 467.515 458.993 467.515 457.463V440.691ZM504.136 444.133V460.124C504.136 461.589 504.209 462.484 504.355 462.81C504.681 463.542 505.234 463.909 506.016 463.909C507.236 463.909 508.229 463.087 508.994 461.443C510.085 462.191 510.955 463.469 511.606 465.276C509.409 466.366 506.886 466.912 504.038 466.912C500.164 466.912 497.503 466.122 496.055 464.543C495.111 463.502 494.639 461.939 494.639 459.856V444.133H492.002V440.691H493.198C495.005 440.691 496.649 439.82 498.13 438.079C499.285 436.744 500.229 435.059 500.962 433.025H504.136V440.691H509.58V444.133H504.136ZM523.789 466.35H514.292V440.691H523.789V446.868C525.661 442.131 528.151 439.763 531.26 439.763C531.683 439.763 532.204 439.788 532.822 439.836C533.001 440.862 533.091 441.724 533.091 442.424C533.091 443.726 532.765 445.216 532.114 446.892C531.154 446.208 530.275 445.867 529.478 445.867C527.606 445.867 526.141 446.851 525.083 448.821C524.22 450.416 523.789 452.231 523.789 454.265V466.35ZM558.066 466.35H549.058L549.351 463.152C547.788 464.454 546.519 465.349 545.542 465.837C544.142 466.553 542.645 466.912 541.05 466.912C538.934 466.912 537.298 466.277 536.143 465.007C535.02 463.787 534.458 462.102 534.458 459.954C534.458 456.763 535.776 454.509 538.413 453.191C539.878 452.458 542.441 451.791 546.104 451.189L548.911 450.725V448.674C548.927 446.265 548.724 444.711 548.301 444.011C547.796 443.181 546.82 442.766 545.371 442.766C542.995 442.766 541.807 443.523 541.807 445.037C541.807 445.981 542.401 446.819 543.589 447.551C542.173 448.788 540.407 449.854 538.291 450.749C536.419 449.35 535.483 447.885 535.483 446.355C535.483 445.053 536.094 443.873 537.314 442.815C539.382 441.008 542.458 440.105 546.543 440.105C551.865 440.105 555.299 441.293 556.846 443.669C557.66 444.923 558.066 447.274 558.066 450.725V466.35ZM548.911 453.093C547.17 453.191 545.908 453.63 545.127 454.412C544.346 455.193 543.955 456.446 543.955 458.171C543.955 460.938 544.842 462.322 546.616 462.322C548.146 462.322 548.911 461.077 548.911 458.586V453.093ZM547.91 439.055H545.664V435.979C545.957 436.093 546.299 436.15 546.689 436.15C547.682 436.15 548.179 435.263 548.179 433.489C548.179 431.763 547.739 430.901 546.86 430.901C546.03 430.901 545.615 431.381 545.615 432.341C545.615 432.732 545.745 433.131 546.006 433.538C545.469 433.912 544.753 434.213 543.857 434.441C543.695 434.034 543.613 433.578 543.613 433.074C543.613 431.967 544.02 431.104 544.834 430.486C545.566 429.9 546.502 429.607 547.642 429.607C549.448 429.607 550.742 430.233 551.523 431.487C551.914 432.089 552.109 432.789 552.109 433.586C552.109 434.742 551.711 435.678 550.913 436.394C550.067 437.159 549.066 437.541 547.91 437.541V439.055ZM585.41 466.35H575.913V433.025H585.41V466.35ZM602.817 442.766C600.669 442.75 599.595 446.306 599.595 453.435C599.595 460.645 600.669 464.25 602.817 464.25C604.966 464.25 606.04 460.67 606.04 453.508C606.04 446.363 604.966 442.782 602.817 442.766ZM615 447.795C615.977 446.477 616.497 445.15 616.562 443.816H612.778V436.907H619.419V442.79C619.419 444.792 618.955 446.55 618.027 448.064C617.458 448.992 616.75 449.854 615.903 450.652C616.115 451.661 616.221 452.727 616.221 453.85C616.221 457.773 614.764 461.011 611.851 463.567C609.312 465.797 606.341 466.912 602.939 466.912C598.936 466.912 595.591 465.422 592.905 462.444C590.594 459.872 589.438 456.837 589.438 453.337C589.438 449.464 590.871 446.217 593.735 443.596C596.274 441.285 599.342 440.121 602.939 440.105C606.602 440.089 609.759 441.415 612.412 444.084C613.519 445.191 614.382 446.428 615 447.795ZM604.917 439.031H601.108L598.276 433.025H604.917V439.031ZM629.697 466.35H620.2V440.691H629.697V466.35ZM625.034 430.144C626.418 430.144 627.638 430.543 628.696 431.34C629.836 432.219 630.405 433.334 630.405 434.685C630.405 436.052 629.819 437.167 628.647 438.03C627.59 438.827 626.353 439.226 624.937 439.226C623.521 439.226 622.284 438.827 621.226 438.03C620.07 437.167 619.492 436.052 619.492 434.685C619.492 433.302 620.086 432.178 621.274 431.316C622.349 430.535 623.602 430.144 625.034 430.144ZM641.538 466.35H634.873V459.441H641.538V466.35ZM653.208 466.35H646.543V459.441H653.208V466.35ZM664.878 466.35H658.213V459.441H664.878V466.35ZM676.548 466.35H669.883V459.441H676.548V466.35Z" fill="black"/>
</g>
<defs>
<clipPath id="clip0">
<rect width="1920" height="1080" fill="white"/>
</clipPath>
</defs>
</svg>
